<?xml version="1.0" standalone="no"?>
<!DOCTYPE svg PUBLIC "-//W3C//DTD SVG 20010904//EN"
 "http://www.w3.org/TR/2001/REC-SVG-20010904/DTD/svg10.dtd">
<svg version="1.0" xmlns="http://www.w3.org/2000/svg"
 width="1536.000000pt" height="1369.000000pt" viewBox="0 0 1536.000000 1369.000000"
 preserveAspectRatio="xMidYMid meet">

<g transform="translate(0.000000,1369.000000) scale(0.100000,-0.100000)"
fill="#000000" stroke="none">
<path d="M2230 11741 c0 -11 29 -35 35 -29 2 2 -4 12 -15 21 -11 9 -20 13 -20
8z"/>
<path d="M2295 11700 c11 -5 27 -9 35 -9 9 0 8 4 -5 9 -11 5 -27 9 -35 9 -9 0
-8 -4 5 -9z"/>
<path d="M2368 11674 c28 -19 28 -27 0 -39 -13 -6 -24 -19 -25 -30 -3 -17 -2
-17 7 3 5 12 17 22 26 22 12 0 15 -6 11 -22 -6 -22 -5 -22 8 -4 12 16 17 17
30 6 8 -7 15 -20 16 -29 0 -10 2 -12 6 -3 2 7 -9 29 -26 50 -18 20 -36 43 -42
50 -5 6 -15 12 -22 12 -6 0 -1 -7 11 -16z"/>
<path d="M3325 11582 c-11 -2 -30 -13 -42 -25 -34 -30 -32 -109 2 -142 28 -29
34 -30 80 -11 64 27 82 109 32 153 -27 24 -45 31 -72 25z m50 -52 c0 -22 -29
-18 -33 3 -3 14 1 18 15 15 10 -2 18 -10 18 -18z"/>
<path d="M9080 11361 c-27 -27 -50 -53 -50 -59 0 -26 24 -22 55 8 l34 33 3
-74 c2 -58 6 -74 18 -74 12 0 16 16 18 73 l3 73 35 -31 c34 -29 54 -32 54 -7
0 16 -92 107 -108 107 -6 0 -34 -22 -62 -49z"/>
<path d="M9560 11285 c0 -67 3 -79 25 -100 28 -29 70 -32 103 -9 20 14 22 24
22 100 0 46 -4 84 -9 84 -5 0 -11 -34 -13 -76 -4 -78 -12 -94 -53 -94 -36 0
-45 20 -45 97 0 58 -3 73 -15 73 -12 0 -15 -15 -15 -75z"/>
<path d="M9920 11259 c0 -76 3 -100 13 -97 8 3 13 35 15 101 2 82 0 97 -13 97
-12 0 -15 -17 -15 -101z"/>
<path d="M10397 11353 c-4 -3 -7 -16 -7 -28 0 -18 -5 -20 -34 -17 -41 5 -66
-24 -66 -75 0 -55 55 -93 89 -60 11 10 14 10 18 0 14 -37 23 -2 23 87 0 92 -5
112 -23 93z m-18 -77 c7 -8 11 -30 9 -48 -2 -26 -8 -34 -27 -36 -13 -2 -28 2
-32 10 -15 23 -10 66 9 77 23 14 28 13 41 -3z"/>
<path d="M10630 11330 c0 -28 -2 -29 -30 -23 -22 4 -36 0 -50 -12 -27 -25 -27
-88 0 -115 22 -22 55 -26 65 -10 5 8 11 8 19 1 21 -18 26 -1 26 96 0 76 -3 93
-15 93 -10 0 -15 -10 -15 -30z m-12 -52 c14 -14 16 -57 3 -76 -4 -8 -19 -12
-32 -10 -19 2 -25 10 -27 36 -5 50 27 79 56 50z"/>
<path d="M11730 11326 c0 -8 -6 -16 -12 -19 -10 -4 -10 -7 0 -18 6 -7 12 -34
12 -60 0 -51 18 -76 47 -64 17 6 17 7 1 19 -24 17 -26 106 -3 106 8 0 15 5 15
10 0 6 -7 10 -15 10 -8 0 -15 7 -15 15 0 8 -7 15 -15 15 -8 0 -15 -6 -15 -14z"/>
<path d="M9753 11294 c-9 -25 2 -178 15 -182 8 -2 12 8 12 31 0 35 0 35 31 24
28 -11 33 -10 56 17 20 24 24 36 19 65 -3 20 -13 41 -22 48 -21 15 -105 13
-111 -3z m91 -20 c31 -30 14 -84 -26 -84 -36 0 -47 71 -14 92 16 11 23 10 40
-8z"/>
<path d="M10000 11290 c-43 -43 -13 -130 45 -130 37 0 65 33 65 78 0 66 -65
97 -110 52z m69 -14 c7 -8 11 -30 9 -48 -3 -29 -6 -33 -33 -33 -27 0 -30 4
-33 33 -3 35 11 62 33 62 7 0 18 -6 24 -14z"/>
<path d="M10160 11295 c-17 -21 -6 -29 20 -15 26 14 50 7 50 -15 0 -9 -9 -15
-26 -15 -39 0 -64 -18 -64 -46 0 -32 42 -54 70 -36 12 7 21 8 25 2 14 -22 25
4 25 55 0 35 -5 59 -16 69 -20 20 -68 21 -84 1z m70 -80 c0 -17 -29 -34 -47
-28 -31 11 -10 40 30 42 9 1 17 -6 17 -14z"/>
<path d="M10710 11283 c-36 -46 -4 -123 52 -123 25 0 68 44 68 70 0 24 -18 61
-34 72 -25 17 -65 8 -86 -19z m74 -9 c29 -28 17 -84 -18 -84 -28 0 -46 18 -46
46 0 22 24 54 40 54 5 0 16 -7 24 -16z"/>
<path d="M10870 11283 c-26 -33 -21 -79 11 -105 27 -23 51 -23 80 1 30 24 18
39 -17 21 -18 -10 -30 -11 -42 -4 -23 15 -27 58 -7 78 20 20 29 20 49 1 16
-16 36 -20 36 -7 0 17 -37 42 -63 42 -16 0 -33 -10 -47 -27z"/>
<path d="M11010 11252 c0 -44 5 -63 18 -75 21 -19 48 -22 57 -7 5 8 11 8 19 1
20 -17 26 -2 26 71 0 53 -3 68 -15 68 -10 0 -15 -15 -17 -57 -3 -54 -5 -58
-28 -58 -23 0 -25 4 -28 58 -2 42 -7 57 -17 57 -12 0 -15 -14 -15 -58z"/>
<path d="M11170 11233 c0 -55 3 -74 13 -71 7 3 13 27 15 61 2 31 7 58 12 59
32 5 35 1 40 -56 7 -79 30 -89 30 -13 0 36 5 59 15 67 27 22 45 -5 45 -67 0
-68 23 -69 28 -2 6 84 -24 118 -78 89 -12 -6 -21 -7 -25 0 -3 5 -26 9 -50 8
l-45 -1 0 -74z"/>
<path d="M11417 11292 c-10 -10 -17 -35 -17 -55 0 -61 50 -94 101 -67 32 17
22 29 -23 27 -33 -2 -43 2 -46 16 -3 14 4 17 47 17 44 0 51 3 51 20 0 50 -79
79 -113 42z m71 -14 c20 -20 14 -28 -23 -28 -19 0 -35 4 -35 8 0 12 22 32 35
32 6 0 16 -5 23 -12z"/>
<path d="M11560 11233 c0 -55 3 -74 13 -71 7 3 13 26 15 55 3 54 19 77 45 67
11 -4 17 -22 19 -60 4 -71 22 -70 26 2 4 71 -7 84 -69 82 l-49 -1 0 -74z"/>
<path d="M11825 11294 c-29 -30 -17 -47 50 -74 28 -11 29 -13 11 -25 -14 -10
-24 -11 -42 -3 -13 6 -27 8 -32 4 -10 -11 28 -36 55 -36 23 0 63 31 63 49 0
14 -41 41 -62 41 -22 0 -33 19 -19 33 7 7 18 7 37 -2 31 -14 42 -8 24 14 -16
20 -64 19 -85 -1z"/>
<path d="M9020 11130 c0 -20 5 -21 123 -18 100 3 122 6 122 18 0 12 -22 15
-122 18 -118 3 -123 2 -123 -18z"/>
<path d="M2261 10256 c-16 -19 -6 -36 20 -36 15 0 20 6 17 22 -4 27 -21 33
-37 14z"/>
<path d="M3192 10248 c-7 -7 -12 -22 -12 -35 0 -14 -6 -23 -15 -23 -8 0 -15
-5 -15 -10 0 -6 7 -13 15 -16 11 -5 15 -22 15 -70 0 -57 2 -64 20 -64 18 0 20
7 20 65 0 51 3 65 15 65 8 0 15 7 15 15 0 8 -7 15 -15 15 -8 0 -15 9 -15 20 0
11 6 20 14 20 8 0 16 7 20 15 7 19 -44 21 -62 3z"/>
<path d="M4212 10243 c4 -21 33 -25 33 -3 0 8 -8 16 -18 18 -14 3 -18 -1 -15
-15z"/>
<path d="M1670 10134 l0 -116 71 4 c60 3 74 8 90 27 22 27 18 57 -11 82 -14
12 -15 17 -5 25 25 17 27 52 6 73 -17 17 -34 21 -86 21 l-65 0 0 -116z m114
67 c12 -19 -7 -41 -35 -41 -24 0 -29 4 -29 25 0 21 5 25 29 25 17 0 32 -4 35
-9z m1 -111 c0 -21 -5 -26 -32 -28 -31 -3 -33 -1 -33 28 0 29 2 31 33 28 27
-2 32 -7 32 -28z"/>
<path d="M4100 10215 c0 -7 -8 -19 -17 -24 -17 -10 -17 -12 0 -25 13 -10 17
-28 17 -70 0 -52 2 -57 27 -67 37 -14 51 3 24 30 -29 29 -29 91 -1 98 11 3 20
11 20 18 0 7 -9 15 -20 18 -11 3 -20 12 -20 21 0 9 -7 16 -15 16 -8 0 -15 -7
-15 -15z"/>
<path d="M2103 10190 c-50 -21 -35 -85 22 -96 40 -7 53 -20 36 -37 -9 -9 -16
-8 -31 1 -23 14 -60 16 -60 3 0 -17 44 -41 75 -41 40 0 75 25 75 55 0 27 -10
36 -59 50 -41 12 -53 35 -19 35 13 0 29 -5 35 -11 7 -7 17 -8 27 -2 43 24 -50
65 -101 43z"/>
<path d="M2416 10193 c-4 -4 -22 -6 -41 -5 l-35 3 0 -86 c0 -84 0 -85 25 -85
24 0 25 3 25 59 0 62 14 86 44 75 12 -5 16 -20 16 -70 0 -62 1 -64 25 -64 24
0 25 2 25 70 0 57 -4 74 -20 90 -20 20 -50 26 -64 13z"/>
<path d="M2567 10180 c-34 -27 -44 -78 -23 -118 8 -16 23 -32 31 -36 34 -13
82 -6 100 14 24 27 12 37 -27 22 -34 -13 -68 -1 -68 23 0 12 14 15 60 15 65 0
70 6 49 53 -21 47 -80 60 -122 27z m81 -37 c2 -9 -8 -13 -33 -13 -33 0 -36 2
-25 15 15 18 51 16 58 -2z"/>
<path d="M2752 10184 c-25 -17 -29 -56 -7 -74 8 -7 29 -15 47 -19 17 -4 33
-11 35 -18 6 -16 -26 -24 -48 -12 -11 5 -30 9 -42 7 l-22 -3 23 -22 c29 -30
94 -31 122 -3 37 37 17 74 -45 86 -20 3 -35 12 -35 20 0 16 31 19 46 4 11 -11
44 -3 44 11 0 14 -44 39 -70 39 -14 0 -36 -7 -48 -16z"/>
<path d="M2933 10185 c-26 -18 -30 -57 -8 -75 8 -7 29 -15 47 -19 17 -4 33
-11 35 -18 6 -16 -26 -24 -48 -12 -11 5 -30 9 -42 7 l-22 -3 23 -22 c29 -30
94 -31 122 -3 37 37 17 74 -45 86 -20 3 -38 10 -41 15 -9 15 27 23 47 11 18
-12 49 -7 49 8 0 31 -84 49 -117 25z"/>
<path d="M1880 10121 c0 -92 31 -123 91 -91 13 8 19 7 19 0 0 -6 10 -10 23 -8
20 3 22 9 25 86 3 82 3 82 -22 82 -23 0 -25 -4 -28 -56 -6 -104 -68 -96 -68 8
0 41 -3 48 -20 48 -18 0 -20 -7 -20 -69z"/>
<path d="M2252 10108 c3 -77 5 -83 26 -86 21 -3 22 -1 22 82 0 85 0 86 -25 86
-26 0 -26 0 -23 -82z"/>
<path d="M3300 10170 c-24 -24 -27 -86 -5 -117 49 -71 159 -11 140 76 -13 58
-93 83 -135 41z m96 -45 c12 -50 -28 -93 -61 -65 -21 18 -19 87 2 99 23 13 51
-3 59 -34z"/>
<path d="M3480 10110 c0 -73 2 -80 20 -80 16 0 19 8 22 58 3 48 7 59 26 67 24
10 30 35 9 35 -7 0 -18 -5 -25 -12 -9 -9 -12 -9 -12 0 0 7 -9 12 -20 12 -18 0
-20 -7 -20 -80z"/>
<path d="M3610 10110 c0 -73 2 -80 20 -80 16 0 19 8 22 63 3 59 4 62 28 62 24
0 25 -3 28 -62 3 -54 6 -63 22 -63 16 0 19 9 22 62 3 53 6 63 22 66 28 6 46
-25 46 -80 0 -36 4 -48 15 -48 12 0 15 14 15 68 0 74 -10 92 -50 92 -14 0 -31
-5 -38 -12 -9 -9 -15 -9 -24 0 -7 7 -24 12 -38 12 -14 0 -31 -5 -38 -12 -9 -9
-12 -9 -12 0 0 7 -9 12 -20 12 -18 0 -20 -7 -20 -80z"/>
<path d="M3914 10173 c-16 -16 -16 -18 -1 -21 9 -2 26 2 38 8 17 10 24 9 36
-3 20 -20 8 -37 -26 -37 -41 0 -75 -30 -66 -59 9 -29 46 -46 71 -33 11 6 32 8
47 5 l27 -5 0 64 c0 50 -4 69 -18 81 -24 22 -86 22 -108 0z m86 -82 c0 -25
-14 -41 -36 -41 -28 0 -44 28 -23 41 18 12 59 11 59 0z"/>
<path d="M4210 10110 c0 -73 2 -80 20 -80 18 0 20 7 20 80 0 73 -2 80 -20 80
-18 0 -20 -7 -20 -80z"/>
<path d="M4316 10177 c-28 -21 -33 -96 -8 -127 28 -34 96 -35 123 -1 27 33 25
92 -4 119 -27 25 -83 29 -111 9z m76 -24 c33 -29 15 -103 -26 -103 -35 0 -50
74 -20 104 19 20 23 20 46 -1z"/>
<path d="M4490 10110 c0 -73 2 -80 20 -80 16 0 19 8 22 56 3 60 20 83 52 71
12 -5 16 -20 16 -67 0 -53 2 -60 20 -60 18 0 20 7 20 68 0 40 -5 73 -12 80
-15 15 -53 16 -79 2 -13 -7 -19 -7 -19 0 0 5 -9 10 -20 10 -18 0 -20 -7 -20
-80z"/>
<path d="M10305 10088 c-23 -13 -35 -28 -35 -45 0 -20 24 -15 38 7 21 35 72
19 72 -22 0 -10 -27 -48 -60 -83 -34 -36 -58 -70 -55 -75 3 -6 40 -10 81 -10
59 0 74 3 74 15 0 11 -12 15 -50 15 -27 0 -50 3 -50 6 0 4 20 29 45 55 59 63
62 109 8 138 -27 14 -42 14 -68 -1z"/>
<path d="M10489 10071 c-25 -26 -29 -37 -29 -86 0 -66 21 -112 54 -121 68 -17
108 24 110 109 0 63 -16 100 -51 116 -37 17 -52 14 -84 -18z m85 -23 c21 -29
20 -107 0 -136 -37 -54 -88 -2 -81 82 6 71 49 99 81 54z"/>
<path d="M10705 10088 c-23 -13 -35 -28 -35 -45 0 -20 24 -15 38 7 22 35 72
19 72 -23 0 -10 -25 -44 -55 -76 -76 -80 -74 -91 20 -91 59 0 75 3 75 14 0 11
-15 16 -51 18 l-51 3 39 45 c22 25 45 55 51 67 16 30 0 71 -33 83 -33 13 -45
12 -70 -2z"/>
<path d="M10905 10088 c-36 -20 -49 -58 -20 -58 8 0 15 5 15 10 0 6 11 15 25
22 19 8 28 8 40 -2 23 -19 15 -53 -14 -60 -36 -8 -37 -27 -2 -35 34 -7 49 -38
31 -60 -16 -19 -54 -19 -74 0 -16 17 -46 20 -46 6 0 -19 53 -51 84 -51 47 0
76 25 76 64 0 19 -7 39 -15 46 -12 10 -12 15 2 36 20 31 5 70 -33 84 -32 13
-44 12 -69 -2z"/>
<path d="M11572 10088 c-7 -7 -12 -20 -12 -29 0 -9 -7 -19 -15 -23 -8 -3 -15
-10 -15 -16 0 -5 7 -10 15 -10 12 0 15 -15 15 -75 0 -60 3 -75 15 -75 12 0 15
15 15 75 0 68 2 75 20 75 11 0 20 5 20 11 0 6 -9 13 -20 16 -11 3 -20 9 -20
13 0 11 26 31 32 24 3 -2 8 2 11 11 5 11 0 15 -21 15 -16 0 -33 -5 -40 -12z"/>
<path d="M13073 10085 c-28 -12 -33 -19 -33 -50 0 -23 5 -38 16 -42 13 -5 12
-8 -5 -25 -21 -19 -27 -53 -13 -74 27 -40 111 -46 147 -9 30 29 31 45 6 76
-17 21 -17 25 -3 47 19 29 4 68 -34 82 -33 13 -42 12 -81 -5z m72 -55 c0 -30
-35 -40 -55 -15 -10 12 -10 18 0 30 20 25 55 15 55 -15z m0 -100 c0 -20 -6
-26 -28 -28 -29 -4 -44 16 -33 44 4 10 15 14 33 12 22 -2 28 -8 28 -28z"/>
<path d="M13463 10074 c-15 -24 -15 -29 -2 -53 15 -27 53 -38 79 -22 8 6 14
25 14 46 0 59 -59 77 -91 29z m57 -29 c0 -16 -6 -25 -15 -25 -9 0 -15 9 -15
25 0 16 6 25 15 25 9 0 15 -9 15 -25z"/>
<path d="M8702 10078 c3 -7 21 -14 41 -16 l37 -3 0 -100 c0 -81 3 -99 15 -99
12 0 15 18 15 100 l0 100 35 0 c24 0 35 5 35 15 0 12 -17 15 -91 15 -68 0 -90
-3 -87 -12z"/>
<path d="M9260 9975 c0 -96 3 -115 15 -115 11 0 15 12 15 45 0 41 2 45 25 45
18 0 31 -11 51 -45 14 -25 32 -45 40 -45 19 0 18 13 -7 55 l-22 36 22 23 c26
28 27 70 1 96 -16 16 -33 20 -80 20 l-60 0 0 -115z m118 51 c4 -34 -10 -46
-55 -46 -32 0 -33 1 -33 41 l0 40 43 -3 c38 -3 42 -6 45 -32z"/>
<path d="M11470 10054 c0 -31 -3 -35 -17 -29 -39 17 -60 16 -83 -3 -21 -17
-25 -29 -25 -70 0 -35 6 -56 19 -71 21 -23 65 -28 85 -8 11 10 14 10 18 0 3
-7 11 -13 19 -13 11 0 14 22 14 115 0 96 -3 115 -15 115 -11 0 -15 -11 -15
-36z m-11 -75 c12 -22 12 -31 2 -58 -23 -55 -84 -34 -84 29 0 61 54 80 82 29z"/>
<path d="M13256 10074 c-3 -9 -6 -36 -6 -61 l0 -45 43 6 c58 8 86 -16 65 -56
-11 -22 -56 -24 -64 -3 -7 17 -54 21 -54 5 0 -6 11 -22 25 -35 30 -31 82 -33
119 -4 64 51 7 158 -69 129 -18 -7 -25 -6 -25 3 0 25 17 36 60 39 33 2 46 8
48 21 3 15 -5 17 -66 17 -54 0 -71 -3 -76 -16z"/>
<path d="M13547 9975 c-46 -68 -72 -115 -64 -115 12 0 167 209 167 225 0 3 -6
5 -13 5 -7 0 -47 -52 -90 -115z"/>
<path d="M13910 10055 c0 -34 -12 -46 -25 -25 -11 18 -45 11 -70 -15 -32 -31
-34 -91 -4 -129 22 -28 48 -33 80 -16 13 7 19 7 19 0 0 -5 11 -10 25 -10 l25
0 0 115 0 115 -25 0 c-22 0 -25 -4 -25 -35z m-12 -67 c28 -28 8 -88 -29 -88
-18 0 -29 19 -29 54 0 24 17 46 35 46 6 0 16 -5 23 -12z"/>
<path d="M9660 10064 c0 -9 -8 -23 -17 -30 -17 -13 -17 -15 0 -25 13 -8 17
-23 17 -67 0 -63 11 -82 47 -82 28 0 30 16 3 30 -16 9 -20 21 -20 65 0 48 2
55 20 55 11 0 20 5 20 11 0 6 -9 13 -20 16 -11 3 -20 14 -20 24 0 11 -7 19
-15 19 -8 0 -15 -7 -15 -16z"/>
<path d="M8919 10021 c-29 -23 -18 -39 15 -22 29 16 60 11 64 -11 2 -13 -6
-19 -35 -24 -58 -10 -73 -21 -73 -54 0 -43 67 -69 98 -38 9 9 12 9 12 0 0 -7
7 -12 15 -12 12 0 15 15 15 74 0 66 -3 77 -22 90 -30 21 -61 20 -89 -3z m81
-94 c0 -20 -21 -37 -46 -37 -29 0 -39 16 -24 35 15 19 70 20 70 2z"/>
<path d="M9077 10034 c-3 -3 6 -24 20 -45 l26 -39 -27 -40 c-31 -47 -32 -50
-7 -50 11 0 22 9 26 19 3 11 12 24 20 31 11 9 17 5 30 -19 8 -17 22 -31 30
-31 20 0 18 20 -5 50 -11 14 -20 32 -20 40 0 8 9 26 20 40 11 14 20 31 20 38
0 22 -23 8 -47 -26 l-21 -32 -21 35 c-20 34 -31 41 -44 29z"/>
<path d="M9500 10033 c-52 -19 -67 -107 -25 -148 31 -31 84 -34 110 -5 23 25
12 37 -19 21 -34 -19 -70 -11 -74 17 -3 21 0 22 57 22 66 0 71 6 50 53 -16 36
-61 54 -99 40z m58 -35 c24 -24 13 -38 -28 -38 -26 0 -40 5 -40 13 0 18 21 37
40 37 9 0 21 -5 28 -12z"/>
<path d="M9767 10034 c-12 -12 -7 -118 6 -144 14 -28 59 -39 82 -20 9 7 15 8
20 0 3 -5 13 -10 21 -10 12 0 14 16 12 88 -2 69 -6 87 -18 87 -11 0 -16 -15
-18 -62 -3 -66 -18 -89 -51 -78 -17 5 -21 16 -23 72 -3 61 -14 84 -31 67z"/>
<path d="M9957 10033 c-4 -3 -7 -44 -7 -90 0 -75 2 -84 18 -81 13 3 18 15 20
63 3 64 14 85 43 85 11 0 19 5 19 10 0 17 -29 23 -44 11 -10 -8 -16 -9 -21 -1
-7 12 -19 13 -28 3z"/>
<path d="M10080 9960 c0 -44 0 -83 -1 -87 0 -5 7 -9 15 -11 13 -3 16 8 16 60
0 66 10 88 42 88 25 0 38 -31 38 -94 0 -43 3 -56 15 -56 12 0 15 14 15 70 0
57 -4 74 -20 90 -22 22 -42 25 -70 10 -13 -7 -21 -7 -25 0 -16 27 -25 3 -25
-70z"/>
<path d="M11157 10033 c-4 -3 -7 -57 -7 -120 0 -106 1 -113 20 -113 17 0 20 7
20 42 0 33 3 39 12 30 7 -7 24 -12 39 -12 64 0 94 106 44 155 -27 28 -46 31
-78 14 -16 -9 -22 -9 -25 0 -4 12 -15 14 -25 4z m111 -55 c24 -51 -24 -110
-63 -78 -18 15 -20 81 -3 98 20 20 52 10 66 -20z"/>
<path d="M14033 10029 c-48 -25 -55 -122 -10 -154 33 -23 84 -19 112 10 30 30
34 92 8 124 -21 25 -78 35 -110 20z m65 -41 c27 -27 11 -88 -23 -88 -24 0 -35
17 -35 54 0 24 17 46 35 46 6 0 16 -5 23 -12z"/>
<path d="M14194 10027 c-3 -8 -4 -47 -2 -88 3 -68 5 -74 25 -77 20 -3 22 1 25
59 2 45 8 65 20 73 27 17 41 -6 46 -74 4 -51 7 -60 23 -60 17 0 19 8 19 75 0
69 -2 76 -26 92 -21 13 -32 15 -55 6 -17 -7 -31 -7 -35 -2 -8 14 -34 11 -40
-4z"/>
<path d="M14416 10018 c-61 -52 -26 -158 51 -158 40 0 68 13 77 36 5 14 0 15
-45 9 -38 -5 -54 -4 -60 6 -13 22 0 29 57 29 50 0 54 2 54 24 0 35 -30 66 -71
72 -28 5 -41 1 -63 -18z m82 -35 c2 -9 -8 -13 -33 -13 -33 0 -36 2 -25 15 15
18 51 16 58 -2z"/>
<path d="M13585 9946 c-32 -48 5 -102 58 -88 27 7 40 48 25 80 -18 38 -61 42
-83 8z m53 -31 c-2 -14 -7 -26 -13 -26 -5 0 -11 12 -13 26 -2 18 1 25 13 25
12 0 15 -7 13 -25z"/>
<path d="M11065 9890 c-8 -13 3 -30 20 -30 14 0 27 24 18 34 -10 9 -31 7 -38
-4z"/>
<path d="M5416 9872 c-3 -6 2 -13 11 -15 10 -3 -18 -6 -62 -7 -148 -3 -286
-31 -354 -71 -19 -11 -64 -32 -100 -45 -116 -44 -205 -88 -224 -111 -10 -13
-24 -23 -31 -23 -7 0 -23 -14 -36 -30 -13 -17 -42 -39 -64 -50 -47 -22 -72
-38 -100 -62 -11 -10 -27 -18 -35 -18 -8 0 -57 -20 -108 -45 -50 -25 -95 -45
-99 -45 -18 0 -84 -36 -84 -46 0 -18 -35 -44 -58 -44 -12 0 -22 -6 -22 -12 0
-12 -34 -56 -74 -98 -60 -62 -73 -90 -80 -161 -4 -45 -13 -81 -25 -98 -33 -46
-50 -127 -52 -240 -1 -124 12 -179 53 -218 28 -27 34 -28 129 -28 77 0 102 -4
109 -15 7 -12 12 -12 22 -2 6 6 19 12 28 12 15 0 27 -26 59 -134 l18 -60 6 48
c4 27 7 64 7 83 0 19 4 43 10 53 9 17 109 73 180 100 19 7 43 20 53 29 10 8
39 16 65 17 27 2 73 12 102 24 30 12 84 24 119 27 36 2 72 8 80 12 43 23 391
78 412 66 3 -2 30 -5 60 -6 30 -1 57 -7 61 -13 3 -5 20 -11 36 -12 30 -2 79
-28 98 -53 6 -8 15 -11 21 -8 27 17 49 -30 58 -125 2 -14 6 -32 10 -39 6 -8 4
-10 -5 -4 -10 6 -12 4 -7 -8 4 -11 1 -17 -9 -17 -11 0 -12 -4 -4 -19 12 -24
10 -71 -4 -90 -9 -12 -7 -13 7 -8 11 4 17 2 16 -6 -3 -26 2 -36 15 -31 10 4
14 -1 12 -19 -2 -18 1 -24 10 -20 8 3 14 1 14 -5 0 -11 -28 -24 -39 -18 -12 8
-13 -75 -1 -89 10 -12 8 -35 -6 -97 -1 -5 -2 -13 -3 -18 0 -6 -7 -9 -13 -8 -7
2 -17 -11 -22 -28 -7 -23 -16 -32 -30 -31 -12 0 -49 -8 -84 -17 -34 -10 -71
-15 -81 -11 -10 3 -30 1 -45 -5 -15 -5 -25 -6 -22 -1 7 10 -33 2 -49 -10 -5
-4 -23 -9 -40 -12 -39 -6 -67 -18 -194 -81 -117 -58 -176 -105 -167 -134 9
-27 -26 -58 -75 -66 -39 -6 -48 -3 -96 31 -85 61 -115 73 -209 84 -49 6 -113
19 -142 28 -41 14 -54 15 -60 6 -4 -7 -23 -19 -42 -27 -54 -23 -147 -92 -142
-106 2 -7 -5 -12 -17 -12 -11 0 -23 -4 -26 -10 -3 -5 -15 -10 -25 -10 -27 0
-33 -16 -21 -53 7 -20 22 -37 40 -45 17 -7 50 -44 80 -88 28 -41 66 -94 84
-117 33 -45 107 -107 142 -119 19 -7 19 -7 1 5 -26 17 -93 89 -136 146 -51 67
-73 118 -78 176 -3 40 0 55 18 78 29 36 81 57 142 57 42 0 53 -4 71 -26 20
-26 34 -28 96 -8 17 5 22 4 17 -4 -5 -8 3 -12 23 -12 16 0 32 -4 35 -9 6 -10
-37 -31 -64 -31 -27 0 -70 -21 -70 -35 0 -6 10 -21 23 -33 26 -25 78 -29 124
-11 15 6 45 13 66 14 33 3 37 1 37 -20 0 -29 -15 -41 -65 -49 -67 -12 -80 -17
-64 -27 24 -15 93 -10 131 10 44 22 48 17 48 -67 -1 -120 -59 -182 -195 -205
-75 -13 -78 -14 -45 -22 82 -19 181 6 228 57 23 25 41 99 72 286 14 85 28 99
88 82 39 -10 46 -20 91 -132 6 -16 16 -28 22 -28 6 0 29 -15 52 -34 23 -19 73
-49 112 -68 90 -43 96 -64 19 -62 -31 0 -59 6 -63 13 -10 16 -38 4 -44 -20 -3
-11 -15 -23 -26 -26 -23 -6 -38 -40 -23 -55 11 -11 92 35 92 52 0 12 54 4 79
-12 11 -6 27 -36 37 -65 l19 -54 -45 -40 c-31 -28 -52 -39 -67 -36 -12 2 -20
0 -17 -4 3 -5 -2 -9 -11 -9 -26 0 -72 -31 -86 -57 -7 -13 -17 -23 -23 -23 -15
0 -66 -59 -66 -76 0 -8 2 -14 4 -14 2 0 28 -5 57 -11 30 -5 82 -10 117 -10 59
1 62 0 52 -19 -6 -11 -17 -20 -25 -20 -7 0 -26 -5 -42 -11 -25 -9 -26 -11 -10
-21 10 -5 29 -7 43 -4 13 4 34 1 45 -5 17 -9 23 -7 36 10 17 25 59 28 84 6 15
-15 17 -13 23 19 11 60 54 55 82 -9 l13 -30 1 27 c0 44 21 79 44 76 32 -5 50
-52 40 -102 -8 -37 -12 -41 -43 -44 -19 -2 -41 -10 -49 -19 -10 -10 -28 -13
-51 -11 -27 3 -40 0 -52 -15 -11 -14 -28 -20 -57 -20 -23 0 -47 -6 -53 -13 -9
-11 -8 -14 1 -14 8 0 11 -3 7 -6 -3 -3 -12 -2 -19 2 -7 5 -36 14 -65 20 -48 9
-51 9 -42 -8 14 -26 56 -45 119 -52 42 -5 77 -1 150 18 52 14 103 28 112 31
13 5 17 0 20 -21 l3 -27 80 61 c44 33 84 58 89 55 5 -4 6 -1 3 4 -4 6 4 27 18
47 27 39 29 43 73 96 16 19 35 46 42 59 9 19 14 21 21 10 7 -12 9 -11 9 1 0
29 -38 95 -71 127 -43 40 -163 109 -156 89 4 -10 -2 -18 -16 -22 -11 -4 -28
-13 -36 -22 -10 -9 -16 -11 -19 -4 -4 14 -32 3 -32 -13 0 -7 -7 -15 -14 -18
-10 -4 -13 -1 -10 7 4 11 -22 31 -34 26 -7 -2 -32 30 -32 40 0 7 -7 10 -15 6
-9 -3 -15 0 -15 9 0 8 -9 29 -20 47 -28 47 -26 51 25 46 65 -8 48 6 -60 48
-14 5 4 10 55 14 89 8 134 26 177 71 56 59 77 121 77 228 l1 93 50 -6 c52 -6
207 -55 246 -78 47 -27 57 -40 53 -68 -3 -16 1 -34 9 -42 8 -8 18 -33 22 -55
5 -33 10 -41 23 -36 12 4 14 3 7 -5 -5 -5 -17 -12 -25 -15 -8 -2 -3 -3 12 -1
25 3 27 2 16 -16 -7 -10 -16 -16 -20 -14 -4 3 -8 0 -8 -5 0 -6 9 -11 21 -11
15 0 19 -5 15 -15 -3 -8 1 -21 10 -29 17 -17 9 -24 -28 -24 -22 0 -28 5 -28
23 0 18 -4 22 -20 18 -11 -3 -20 -1 -20 4 0 8 -63 53 -110 78 -8 4 15 -22 53
-59 37 -37 68 -72 68 -77 3 -18 5 -24 17 -46 18 -33 10 -29 -41 22 -26 25 -53
45 -62 45 -9 0 -13 5 -10 10 3 6 1 10 -4 10 -16 0 -14 -8 11 -42 l21 -31 -29
19 -29 19 23 -35 c12 -19 28 -34 34 -32 7 2 10 1 6 -3 -8 -9 23 -45 39 -45 7
0 11 -11 10 -26 -1 -16 4 -29 13 -32 13 -5 13 -3 1 11 -11 15 -11 17 2 17 8 0
21 -8 28 -17 10 -11 10 -14 2 -9 -7 4 -14 4 -14 -1 -6 -38 -4 -55 7 -61 7 -4
13 -11 14 -17 1 -5 6 -9 11 -7 14 3 11 -16 -3 -21 -8 -3 -6 -6 4 -6 11 -1 15
-6 12 -15 -3 -8 -1 -17 5 -20 6 -4 8 -13 5 -20 -3 -7 2 -21 11 -30 11 -11 12
-16 4 -16 -7 0 -5 -7 7 -16 18 -15 18 -15 -4 -9 -15 5 -30 1 -42 -10 -23 -21
-28 -11 -26 48 1 26 -2 47 -6 47 -4 0 -7 10 -7 23 1 31 -5 53 -19 69 -6 8 -9
18 -5 21 3 4 -2 16 -12 27 -10 11 -15 20 -10 20 4 0 -4 12 -18 26 -15 15 -24
31 -20 37 4 7 0 8 -13 3 -10 -4 -15 -4 -11 0 7 7 -36 34 -54 34 -5 0 -18 -9
-28 -19 -20 -20 -20 -20 2 -23 15 -2 23 -13 28 -38 4 -19 18 -43 30 -53 13
-10 24 -26 25 -35 2 -9 9 -27 15 -40 11 -19 11 -25 0 -31 -10 -6 -9 -10 3 -14
14 -6 16 -27 12 -174 -3 -93 -7 -179 -9 -193 -2 -14 -5 -37 -5 -52 -1 -15 -9
-33 -17 -42 -8 -8 -12 -22 -9 -30 3 -9 2 -16 -3 -16 -5 0 -9 -9 -10 -20 -3
-37 -41 -108 -67 -125 -16 -11 -26 -26 -26 -42 0 -13 -4 -22 -9 -18 -6 3 -15
0 -21 -7 -40 -48 -54 -66 -67 -85 -9 -13 -23 -23 -33 -23 -10 0 -26 -7 -34
-16 -9 -8 -16 -12 -16 -8 0 17 -30 -21 -31 -40 0 -11 -3 -15 -6 -8 -3 9 -12 4
-28 -14 -29 -33 -50 -38 -81 -17 -22 14 -50 10 -39 -6 5 -8 -69 -26 -92 -22
-7 1 -13 -3 -13 -10 0 -7 -9 -9 -24 -5 -46 11 -36 -11 14 -32 39 -16 51 -27
56 -49 13 -61 26 -93 35 -87 5 3 9 2 8 -3 -4 -23 2 -64 9 -59 4 2 18 -15 31
-39 13 -25 49 -64 84 -91 68 -54 147 -130 147 -143 0 -4 -9 -16 -21 -26 -21
-19 -21 -19 -91 10 -15 6 -18 2 -18 -24 0 -17 5 -31 10 -31 6 0 10 -6 10 -14
0 -12 7 -12 52 0 48 12 78 34 78 56 0 15 18 8 79 -27 32 -19 62 -35 65 -35 3
0 6 9 6 20 0 15 -7 20 -25 20 -14 0 -25 5 -25 11 0 5 -4 7 -10 4 -5 -3 -10 1
-10 9 0 14 -12 20 -32 17 -5 0 -7 2 -6 7 2 4 -29 39 -68 77 -83 83 -96 104
-135 234 -27 91 -36 141 -23 141 3 0 37 5 75 11 69 11 70 10 107 -18 20 -15
51 -42 69 -60 17 -18 35 -33 39 -33 4 0 13 -8 20 -17 7 -10 18 -18 25 -18 6 0
16 -7 20 -15 16 -28 42 -95 40 -103 0 -4 10 -12 24 -17 14 -5 28 -16 31 -24
12 -32 92 -23 124 14 8 9 41 34 73 55 32 20 83 57 115 82 53 41 424 393 500
476 20 20 41 37 49 37 7 0 13 3 13 8 0 4 13 22 28 40 43 52 131 213 170 312
l10 25 -2 -25 c-4 -39 -28 -120 -37 -126 -5 -3 -9 -13 -9 -22 0 -9 -9 -39 -19
-67 -11 -27 -34 -88 -51 -135 -18 -47 -38 -99 -46 -117 -8 -17 -14 -36 -14
-42 0 -5 -11 -26 -25 -47 -13 -20 -30 -51 -37 -70 -6 -19 -16 -34 -20 -34 -4
0 -17 -20 -28 -45 -12 -26 -27 -49 -35 -52 -8 -3 -15 -17 -15 -32 0 -16 -10
-37 -25 -51 -14 -13 -25 -32 -25 -42 0 -10 -4 -18 -10 -18 -5 0 -19 -22 -31
-50 -12 -27 -25 -50 -29 -50 -5 0 -13 -15 -19 -33 -6 -18 -20 -39 -30 -47 -15
-10 -17 -18 -11 -31 7 -13 4 -21 -16 -34 -20 -13 -23 -19 -14 -30 8 -10 7 -16
-6 -23 -11 -6 -15 -16 -11 -26 4 -9 3 -14 -2 -11 -5 3 -12 1 -16 -5 -4 -6 -11
-8 -16 -5 -9 6 -11 1 -13 -27 -1 -7 -10 -18 -21 -25 -20 -12 -19 -12 3 -13 12
0 23 -6 23 -12 1 -7 3 -23 4 -36 2 -16 -2 -21 -11 -18 -18 7 -18 -2 -1 -19 11
-11 16 -9 26 7 10 17 20 19 52 15 32 -4 41 -2 45 11 11 36 22 47 48 49 26 2
27 0 20 -30 -7 -36 -25 -67 -37 -67 -4 0 -6 -4 -2 -9 3 -6 -2 -14 -11 -19 -15
-8 -15 -10 0 -15 9 -4 22 -4 29 -1 11 4 61 127 79 194 12 48 88 285 98 305 15
32 60 146 80 203 22 60 59 147 103 242 16 36 38 84 49 108 12 27 33 51 54 64
21 12 34 28 34 41 0 19 1 19 19 3 21 -19 35 -8 24 20 -4 12 -3 15 5 10 7 -4
15 0 19 11 4 10 13 24 21 32 12 12 15 12 23 0 15 -24 10 -77 -8 -87 -15 -9
-15 -11 -1 -25 12 -12 18 -13 27 -4 9 9 11 8 6 -5 -4 -11 -18 -18 -33 -18 -24
0 -25 -1 -11 -16 14 -14 19 -12 48 15 21 20 31 37 27 47 -3 8 -2 12 3 9 5 -3
12 4 16 15 3 11 10 20 15 20 4 0 10 10 14 23 7 28 76 108 76 88 0 -11 4 -9 14
4 9 13 11 25 5 36 -8 16 1 26 25 27 5 0 12 6 16 12 6 9 12 6 21 -11 14 -26 14
-110 -1 -254 -11 -99 -12 -141 -6 -134 6 5 13 42 26 124 18 110 33 165 46 165
8 0 14 -13 14 -32 0 -18 1 -40 1 -48 2 -23 -11 -139 -22 -200 -5 -30 -12 -109
-15 -175 -3 -66 -7 -130 -10 -142 -5 -27 -43 -62 -144 -136 -129 -94 -132 -97
-119 -113 6 -8 28 -19 49 -25 37 -11 40 -10 97 32 32 24 86 62 119 84 96 62
102 78 90 245 -7 94 1 186 26 303 11 51 15 57 38 58 25 0 25 0 3 9 -27 11 -29
27 -8 56 12 18 20 20 55 14 37 -7 44 -5 42 11 -1 4 8 5 18 2 11 -3 20 -11 20
-17 0 -7 7 -13 15 -13 8 0 15 5 15 11 0 6 5 5 12 -2 7 -7 19 -12 27 -12 9 0
29 -7 45 -15 16 -9 32 -13 35 -9 7 6 -28 29 -45 29 -6 0 -19 6 -28 14 -9 7
-16 10 -16 7 0 -4 -10 -2 -21 5 -17 9 -20 8 -14 -3 3 -7 0 -5 -8 5 -8 9 -19
17 -26 17 -6 0 -11 5 -11 11 0 6 -7 8 -16 5 -8 -3 -12 -2 -9 4 3 5 -10 12 -30
16 -19 3 -35 9 -35 13 0 7 -108 41 -129 41 -5 0 -11 -8 -13 -17 -2 -10 -4 5
-4 33 0 64 -19 92 -126 180 -44 38 -115 111 -157 164 -41 52 -85 103 -96 113
-42 37 -116 67 -181 75 -75 8 -69 2 -113 117 -50 132 -65 196 -52 217 17 27 3
238 -16 238 -7 0 -13 -4 -13 -10 0 -13 -66 -45 -109 -54 l-34 -6 26 26 c15 15
24 31 20 38 -3 6 -3 8 1 4 11 -9 74 49 82 76 4 11 15 32 25 46 10 14 33 72 49
130 17 58 35 112 39 120 4 8 18 51 31 95 13 44 27 85 32 91 5 7 7 25 6 42 -2
26 -5 29 -17 19 -12 -10 -13 -9 -3 10 16 30 16 59 0 45 -10 -8 -13 -2 -14 24
0 19 -6 40 -13 47 -10 9 -11 8 -5 -8 4 -11 4 -17 -1 -13 -10 10 -15 40 -26
182 -13 166 -47 430 -65 501 -9 33 -20 83 -26 110 -46 225 -151 421 -281 528
-58 47 -162 100 -243 123 -36 10 -77 28 -89 40 -28 25 -108 47 -144 39 -22 -5
-35 2 -74 39 -26 25 -65 55 -86 66 -58 29 -371 64 -385 42z m-229 -118 c-3 -3
-12 -4 -19 -1 -8 3 -5 6 6 6 11 1 17 -2 13 -5z m-72 -122 c-3 -3 -11 0 -18 7
-9 10 -8 11 6 5 10 -3 15 -9 12 -12z m-139 -199 c-7 -7 -26 7 -26 19 0 6 6 6
15 -2 9 -7 13 -15 11 -17z m-616 -280 c0 -12 -2 -12 -15 1 -8 8 -15 17 -15 20
0 3 7 3 15 0 8 -4 15 -13 15 -21z m-43 -13 c-3 -11 -1 -20 4 -20 4 0 6 -7 3
-15 -4 -8 -10 -13 -14 -10 -5 3 -10 -1 -13 -7 -2 -7 -4 -1 -4 15 0 15 4 27 9
27 6 0 8 7 4 15 -3 8 0 15 5 15 6 0 9 -9 6 -20z m-42 -30 c3 -5 -1 -10 -10
-10 -9 0 -13 5 -10 10 3 6 8 10 10 10 2 0 7 -4 10 -10z m-10 -49 c3 -5 1 -12
-5 -16 -5 -3 -10 1 -10 9 0 18 6 21 15 7z m-55 -65 c0 -6 -7 -1 -15 10 -8 10
-15 23 -15 28 0 6 7 1 15 -10 8 -10 15 -23 15 -28z m-83 -48 c-3 -7 -5 -2 -5
12 0 14 2 19 5 13 2 -7 2 -19 0 -25z m2649 -670 c3 -4 -16 -8 -42 -8 -42 0
-45 -2 -33 -17 11 -13 11 -17 2 -20 -7 -3 -13 -16 -13 -30 0 -24 -2 -25 -44
-21 -37 5 -45 2 -49 -13 -4 -13 -11 -17 -22 -13 -9 4 -13 10 -8 13 5 3 15 21
23 39 20 50 74 83 133 80 26 0 50 -5 53 -10z m-1116 -128 c0 -5 -2 -10 -4 -10
-3 0 -8 5 -11 10 -3 6 -1 10 4 10 6 0 11 -4 11 -10z m1042 -42 c29 -54 58
-148 44 -148 -3 0 -20 15 -36 33 -21 22 -28 39 -25 55 3 12 -2 36 -10 52 -14
26 -14 30 -1 30 9 0 21 -10 28 -22z m-112 -47 c0 -7 -12 -10 -27 -9 -27 3 -28
1 -31 -45 -3 -44 -4 -46 -24 -36 -27 15 -19 67 17 115 l27 35 19 -25 c10 -13
19 -29 19 -35z m-918 27 c-7 -7 -12 -8 -12 -2 0 14 12 26 19 19 2 -3 -1 -11
-7 -17z m173 -16 c-3 -3 -11 0 -18 7 -9 10 -8 11 6 5 10 -3 15 -9 12 -12z
m-169 -57 c-6 -17 -26 -12 -26 6 0 6 5 7 10 4 6 -3 10 -1 10 6 0 7 3 10 6 6 4
-3 4 -13 0 -22z m884 -346 c0 -43 3 -80 8 -82 4 -2 21 3 37 12 22 12 34 30 44
64 19 60 41 63 41 5 -1 -48 -35 -98 -68 -98 -10 0 -23 -5 -29 -11 -8 -8 -17
-8 -32 1 -26 13 -41 6 -41 -21 0 -10 -4 -19 -10 -19 -5 0 -10 -9 -10 -19 0
-11 -5 -23 -10 -26 -6 -4 -8 -10 -5 -14 2 -5 -3 -17 -11 -27 -11 -14 -17 -15
-20 -6 -3 6 -12 12 -19 12 -15 0 -29 -44 -15 -48 13 -5 13 -22 1 -22 -13 0
-41 29 -41 42 0 5 7 8 15 4 13 -5 14 -2 3 17 -14 25 -12 125 3 143 5 6 7 20 3
30 -3 11 -2 15 3 8 4 -6 16 -13 25 -17 12 -4 15 -2 11 9 -3 7 -9 14 -14 14 -5
0 -9 7 -9 15 0 9 9 15 25 15 26 0 30 -12 27 -77 -1 -13 3 -23 7 -23 15 0 53
153 44 177 -3 7 -2 20 1 29 5 13 9 14 21 4 11 -9 15 -34 15 -91z m-1265 80
c-22 -4 -56 -7 -75 -7 -32 1 -31 2 10 8 25 4 59 7 75 7 25 1 23 -1 -10 -8z
m103 4 c-10 -2 -26 -2 -35 0 -10 3 -2 5 17 5 19 0 27 -2 18 -5z m216 -9 c9
-24 6 -42 -4 -19 -5 11 -9 14 -9 7 -1 -7 -5 -11 -11 -7 -10 6 -2 35 10 35 4 0
11 -7 14 -16z m57 -34 c-21 -18 -51 -27 -51 -15 0 5 58 33 70 34 3 0 -6 -9
-19 -19z m359 10 c0 -5 -5 -10 -11 -10 -5 0 -7 5 -4 10 3 6 8 10 11 10 2 0 4
-4 4 -10z m-510 -36 c0 -8 -4 -12 -10 -9 -5 3 -10 10 -10 16 0 5 5 9 10 9 6 0
10 -7 10 -16z m561 -38 c5 3 7 10 4 15 -4 5 -2 9 3 9 12 0 23 -26 15 -34 -4
-3 -15 -6 -25 -6 -13 0 -18 7 -17 28 2 23 2 24 6 4 2 -12 9 -20 14 -16z m-728
4 c4 -16 -1 -21 -32 -26 -20 -4 -41 -11 -48 -16 -12 -10 -60 -1 -69 13 -12 21
41 48 92 49 43 0 53 -3 57 -20z m686 11 c3 -1 -4 -8 -15 -16 -12 -10 -14 -14
-5 -13 8 2 17 -5 19 -14 4 -22 -11 -23 -28 -3 -7 8 -19 15 -28 15 -13 0 -12 3
4 19 10 10 26 17 34 15 8 -1 17 -3 19 -3z m-258 -39 c-30 -5 -61 -32 -38 -32
9 0 18 -6 21 -12 5 -10 7 -10 12 0 8 17 24 5 18 -13 -4 -8 -10 -12 -15 -9 -5
3 -9 0 -9 -5 0 -14 -66 -14 -129 1 -38 8 -51 16 -51 30 0 11 10 20 28 23 15 3
41 10 57 14 17 4 53 8 80 8 28 0 39 -2 26 -5z m-1334 -10 c7 -4 -36 -8 -95 -9
-62 0 -99 3 -87 8 26 10 166 11 182 1z m1627 -7 c3 -9 0 -15 -9 -15 -9 0 -12
6 -9 15 4 8 7 15 9 15 2 0 5 -7 9 -15z m-64 -15 c0 -5 -5 -10 -11 -10 -5 0 -7
5 -4 10 3 6 8 10 11 10 2 0 4 -4 4 -10z m-462 -61 c16 -30 11 -203 -8 -239
-42 -82 -131 -127 -228 -116 -60 7 -164 49 -184 74 -11 14 -10 15 7 8 55 -23
121 -46 128 -46 17 0 -5 21 -36 34 -63 28 -113 94 -88 119 6 6 11 22 11 35 0
24 1 24 58 16 76 -11 173 -7 209 9 57 25 123 69 123 83 0 8 -3 14 -7 14 -17 1
-54 40 -48 50 9 15 46 -9 63 -41z m-591 -31 c7 -24 8 -37 2 -31 -6 6 -14 27
-19 48 -11 48 1 36 17 -17z m1138 43 c8 -14 -13 -24 -33 -16 -14 5 -14 7 -2
15 19 12 27 12 35 1z m-665 -13 c0 -11 -52 -48 -67 -48 -8 0 -21 -7 -29 -15
-27 -27 -138 -16 -127 12 8 19 48 35 102 39 24 2 49 8 54 13 11 11 67 10 67
-1z m650 -22 c0 -3 -4 -8 -10 -11 -5 -3 -10 -1 -10 4 0 6 5 11 10 11 6 0 10
-2 10 -4z m-2000 -46 c0 -5 -5 -10 -11 -10 -5 0 -7 5 -4 10 3 6 8 10 11 10 2
0 4 -4 4 -10z m2385 -60 c-3 -5 -11 -10 -16 -10 -6 0 -7 5 -4 10 3 6 11 10 16
10 6 0 7 -4 4 -10z m110 -75 c-4 -54 -5 -56 -16 -50 -6 4 -13 -2 -16 -14 -7
-29 -28 -6 -37 41 -6 32 -3 39 26 63 29 25 32 26 38 8 4 -10 6 -31 5 -48z
m-535 35 c0 -5 -2 -10 -4 -10 -3 0 -8 5 -11 10 -3 6 -1 10 4 10 6 0 11 -4 11
-10z m-26 -55 c11 -9 14 -15 7 -15 -7 0 -19 7 -27 15 -20 19 -5 19 20 0z m556
-55 c0 -5 -4 -10 -10 -10 -5 0 -10 5 -10 10 0 6 5 10 10 10 6 0 10 -4 10 -10z
m-33 -42 c-3 -8 -6 -5 -6 6 -1 11 2 17 5 13 3 -3 4 -12 1 -19z m90 -20 c-3 -8
-6 -5 -6 6 -1 11 2 17 5 13 3 -3 4 -12 1 -19z m-47 -28 c0 -5 -2 -10 -4 -10
-3 0 -8 5 -11 10 -3 6 -1 10 4 10 6 0 11 -4 11 -10z m50 -200 c0 -5 -2 -10 -4
-10 -3 0 -8 5 -11 10 -3 6 -1 10 4 10 6 0 11 -4 11 -10z m-630 -50 c0 -5 -2
-10 -4 -10 -3 0 -8 5 -11 10 -3 6 -1 10 4 10 6 0 11 -4 11 -10z m-493 -69 c18
-5 35 -6 37 -2 3 4 19 6 36 3 39 -6 41 -32 2 -32 -15 0 -33 -5 -38 -10 -6 -6
-46 -17 -90 -26 -43 -9 -97 -20 -119 -24 -22 -5 -41 -7 -42 -6 -7 6 44 52 54
49 6 -2 17 5 25 16 9 13 18 17 28 11 9 -5 22 -2 38 11 29 22 27 22 69 10z
m1088 -51 c3 -5 1 -10 -4 -10 -6 0 -11 5 -11 10 0 6 2 10 4 10 3 0 8 -4 11
-10z m50 -27 c3 -10 5 -19 3 -20 -2 -1 6 -9 17 -18 11 -9 15 -14 9 -11 -7 3
-14 -1 -18 -9 -3 -8 -12 -15 -20 -15 -10 0 -13 6 -10 15 4 8 11 12 18 8 8 -5
8 -3 0 8 -15 19 -24 59 -14 59 4 0 11 -8 15 -17z m-1098 -101 c-6 -44 -21 -59
-42 -42 -18 15 -20 59 -3 96 l12 26 19 -23 c12 -16 17 -33 14 -57z m57 59 c3
-5 0 -20 -7 -34 -12 -23 -14 -24 -24 -8 -7 11 -8 23 -1 34 10 19 24 22 32 8z
m1006 -52 c0 -5 -4 -9 -10 -9 -5 0 -10 7 -10 16 0 8 5 12 10 9 6 -3 10 -10 10
-16z m71 -3 c-6 -7 -10 -15 -8 -17 1 -2 -2 -1 -7 3 -17 14 -28 9 -22 -9 3 -10
2 -24 -3 -32 -7 -11 -11 -9 -20 8 -8 15 -9 21 -1 21 6 0 9 8 6 18 -5 16 0 19
30 20 29 1 34 -1 25 -12z m-706 -46 c3 -5 1 -10 -4 -10 -6 0 -11 5 -11 10 0 6
2 10 4 10 3 0 8 -4 11 -10z m638 -22 c-2 -5 5 -8 15 -8 11 0 22 -7 26 -15 3
-8 1 -15 -4 -15 -6 0 -10 -9 -10 -20 0 -25 -9 -25 -26 -2 -12 16 -13 16 -19
-1 -4 -10 0 -27 8 -41 15 -23 13 -36 -5 -36 -5 0 -7 4 -4 8 8 13 -24 53 -37
47 -7 -3 -2 2 11 11 12 9 22 22 22 29 0 8 6 16 13 18 6 3 2 6 -10 6 -22 1 -34
21 -13 21 6 0 10 7 10 15 0 13 2 14 14 3 8 -7 12 -16 9 -20z m71 14 c2 -4 -5
-9 -17 -9 -17 -2 -19 0 -7 7 18 12 18 12 24 2z m-1547 -148 c-3 -3 -12 -4 -19
-1 -8 3 -5 6 6 6 11 1 17 -2 13 -5z"/>
<path d="M6420 7571 c0 -25 6 -27 13 -6 4 8 2 17 -3 20 -6 4 -10 -3 -10 -14z"/>
<path d="M6447 7483 c-4 -3 -7 -11 -7 -17 0 -6 5 -5 12 2 6 6 9 14 7 17 -3 3
-9 2 -12 -2z"/>
<path d="M3426 9803 c-11 -11 -6 -23 9 -23 8 0 15 4 15 9 0 13 -16 22 -24 14z"/>
<path d="M2500 9790 c0 -5 7 -10 15 -10 8 0 15 5 15 10 0 6 -7 10 -15 10 -8 0
-15 -4 -15 -10z"/>
<path d="M2875 9788 c-2 -7 -5 -33 -7 -56 l-4 -44 39 6 c46 8 77 -13 77 -50 0
-51 -54 -70 -90 -32 -23 25 -36 19 -21 -10 20 -38 81 -41 115 -6 20 19 21 74
2 99 -10 14 -25 19 -56 19 -40 -1 -41 -1 -38 30 3 29 5 31 51 34 26 2 47 7 47
13 0 14 -110 11 -115 -3z"/>
<path d="M2502 9658 c2 -54 7 -83 16 -86 9 -3 12 18 12 82 0 71 -3 86 -15 86
-13 0 -15 -14 -13 -82z"/>
<path d="M2582 9658 c2 -54 7 -83 16 -86 9 -3 12 14 12 61 0 71 12 91 52 85
21 -3 23 -9 28 -72 3 -43 10 -71 18 -74 19 -6 16 118 -4 146 -18 26 -50 28
-76 5 -17 -15 -18 -15 -18 0 0 10 -7 17 -15 17 -13 0 -15 -14 -13 -82z"/>
<path d="M3140 9655 c0 -50 4 -85 10 -85 6 0 10 22 10 49 0 74 14 103 48 99
26 -3 27 -5 30 -68 4 -80 22 -107 22 -33 0 76 14 105 48 101 26 -3 27 -6 32
-71 6 -87 25 -83 25 6 0 49 -4 70 -15 77 -23 14 -56 12 -70 -5 -12 -14 -15
-14 -30 0 -20 18 -51 19 -69 3 -11 -10 -14 -10 -18 0 -13 35 -23 3 -23 -73z"/>
<path d="M3422 9658 c4 -106 22 -105 26 2 2 67 0 80 -13 80 -13 0 -15 -13 -13
-82z"/>
<path d="M3502 9658 c4 -97 21 -107 28 -17 4 44 10 65 23 73 32 20 51 -4 57
-73 6 -77 24 -80 28 -5 5 88 -31 124 -91 93 -16 -9 -22 -9 -25 0 -2 6 -8 11
-13 11 -6 0 -9 -35 -7 -82z"/>
<path d="M3705 9727 c-31 -24 -13 -63 37 -79 32 -9 43 -18 43 -33 0 -24 -48
-34 -71 -14 -8 6 -18 9 -22 5 -10 -11 28 -36 54 -36 32 0 53 10 64 30 15 28 2
48 -38 61 -47 15 -62 27 -55 45 6 17 54 19 71 2 17 -17 28 -2 12 17 -15 19
-70 20 -95 2z"/>
<path d="M5578 8083 c7 -3 16 -2 19 1 4 3 -2 6 -13 5 -11 0 -14 -3 -6 -6z"/>
<path d="M5605 8052 c-5 -4 -11 -15 -12 -26 -1 -17 0 -17 14 -3 16 16 15 41
-2 29z"/>
<path d="M12796 7471 c-4 -6 -35 -11 -69 -11 l-63 0 -75 -78 c-86 -89 -104
-128 -96 -207 6 -56 48 -148 83 -180 7 -5 37 -41 68 -78 38 -45 55 -74 52 -85
-15 -44 -95 -112 -133 -112 -8 0 -12 -4 -9 -9 3 -5 -1 -14 -9 -21 -8 -7 -15
-18 -15 -24 0 -6 5 -4 10 4 8 12 10 11 11 -7 2 -36 3 -37 26 -60 l22 -22 4 37
c3 33 4 31 6 -13 1 -27 5 -45 7 -38 3 7 15 2 31 -13 l27 -25 13 23 c7 13 13
19 13 13 0 -5 5 -3 10 5 8 12 10 11 10 -7 0 -16 5 -20 20 -16 11 3 20 0 20 -6
0 -5 7 -8 15 -5 8 4 22 1 30 -6 13 -11 14 -8 9 18 -6 28 -4 30 15 25 11 -3 22
-13 23 -22 0 -9 2 -21 2 -28 2 -20 15 -27 21 -10 8 18 -20 76 -41 84 -7 3 -14
12 -14 20 0 8 -4 11 -10 8 -16 -10 -12 0 10 25 22 25 26 55 10 65 -24 15 5 27
49 20 l46 -6 -35 28 c-19 15 -43 37 -52 48 -28 31 -45 49 -62 63 -10 8 -16 28
-16 52 0 43 -8 72 -19 66 -4 -3 -8 5 -9 17 -2 27 18 68 30 61 4 -3 18 -2 29 1
14 5 18 10 10 14 -12 8 8 20 66 39 44 14 55 -5 12 -20 -29 -10 -31 -12 -13
-19 42 -17 54 -11 54 26 0 38 15 45 36 18 13 -17 13 -17 14 0 0 10 6 17 13 16
35 -4 68 2 61 12 -3 6 -17 9 -30 6 -36 -7 -29 7 12 22 32 11 37 11 49 -6 9
-10 14 -13 15 -5 0 6 10 12 23 13 12 0 17 3 11 5 -7 3 -9 23 -6 54 5 59 -14
96 -85 156 -74 63 -90 70 -184 81 -29 3 -49 1 -53 -6z m-1 -301 c-3 -5 -12
-10 -18 -10 -7 0 -6 4 3 10 19 12 23 12 15 0z m43 -35 c-2 -2 -20 -8 -40 -13
-41 -11 -54 3 -16 17 19 7 64 4 56 -4z m-78 -45 c0 -5 -5 -10 -11 -10 -5 0 -7
5 -4 10 3 6 8 10 11 10 2 0 4 -4 4 -10z m-100 -139 c6 -12 6 -22 1 -26 -10 -6
-14 -1 -24 28 -9 23 10 22 23 -2z m7 -326 c-8 -20 8 -28 23 -10 7 8 16 15 21
15 5 0 1 -9 -8 -20 -22 -25 -53 -27 -48 -2 2 9 4 20 4 25 1 4 4 7 7 7 3 0 4
-7 1 -15z m123 0 c0 -8 -4 -15 -10 -15 -5 0 -10 7 -10 15 0 8 5 15 10 15 6 0
10 -7 10 -15z"/>
<path d="M5900 7400 c0 -5 7 -7 15 -4 8 4 15 8 15 10 0 2 -7 4 -15 4 -8 0 -15
-4 -15 -10z"/>
<path d="M13075 7140 c3 -5 8 -10 11 -10 2 0 4 5 4 10 0 6 -5 10 -11 10 -5 0
-7 -4 -4 -10z"/>
<path d="M4658 6993 c-18 -16 -39 -35 -46 -43 -21 -26 -52 -98 -52 -123 0 -47
76 -130 158 -172 32 -15 34 -15 46 1 10 13 20 15 42 10 33 -9 114 -58 161 -99
l33 -29 -15 29 c-8 15 -15 40 -15 55 0 21 -6 29 -22 32 -100 19 -133 29 -166
51 -39 26 -67 68 -57 85 3 5 -4 32 -16 60 -21 49 -22 85 -3 148 9 30 -7 28
-48 -5z"/>
<path d="M13052 6982 c13 -16 25 -25 27 -20 4 11 -28 48 -41 48 -5 0 1 -13 14
-28z"/>
<path d="M12882 6983 c14 -17 81 -18 76 0 -3 7 -22 12 -46 13 -33 0 -39 -2
-30 -13z"/>
<path d="M13025 6929 c-11 -17 1 -21 15 -4 8 9 8 15 2 15 -6 0 -14 -5 -17 -11z"/>
<path d="M12845 6910 c-18 -7 -17 -9 15 -23 35 -15 57 -13 30 3 -10 6 -5 11
21 18 l34 10 -40 0 c-22 1 -49 -3 -60 -8z"/>
<path d="M13025 6753 c-3 -16 -17 -50 -30 -78 l-24 -50 25 30 c42 49 69 125
44 125 -5 0 -12 -12 -15 -27z"/>
<path d="M12971 6614 c-26 -17 -34 -31 -35 -54 -1 -33 10 -41 17 -12 4 14 5
14 6 1 1 -14 9 -15 58 -7 32 5 59 11 61 13 7 6 -38 64 -56 74 -12 6 -27 2 -51
-15z"/>
<path d="M5538 6463 c6 -2 9 -10 6 -15 -4 -7 -2 -8 4 -4 18 11 14 26 -5 25
-11 0 -13 -3 -5 -6z"/>
<path d="M5507 6423 c-4 -3 -7 -11 -7 -17 0 -6 5 -5 12 2 6 6 9 14 7 17 -3 3
-9 2 -12 -2z"/>
<path d="M5685 6400 c3 -5 8 -10 11 -10 2 0 4 5 4 10 0 6 -5 10 -11 10 -5 0
-7 -4 -4 -10z"/>
<path d="M5673 6373 c-7 -3 -13 -12 -13 -22 0 -9 -6 -23 -12 -30 -11 -11 -9
-11 10 -1 13 6 21 14 18 17 -3 4 -1 12 6 20 13 15 9 22 -9 16z"/>
<path d="M5341 6223 c6 -7 17 -13 23 -12 7 0 6 2 -2 6 -6 2 -10 8 -8 12 3 4
-1 8 -9 8 -11 0 -12 -4 -4 -14z"/>
<path d="M7705 6230 c3 -5 8 -10 11 -10 2 0 4 5 4 10 0 6 -5 10 -11 10 -5 0
-7 -4 -4 -10z"/>
<path d="M5255 6220 c-3 -5 0 -10 9 -10 8 0 16 -6 19 -12 2 -7 8 -10 12 -6 11
11 -2 38 -19 38 -8 0 -18 -4 -21 -10z"/>
<path d="M14107 6084 c-16 -16 -6 -35 16 -32 12 2 22 10 22 18 0 16 -26 25
-38 14z"/>
<path d="M11919 6051 c-25 -26 -29 -37 -29 -86 0 -49 4 -60 29 -86 40 -39 109
-41 146 -4 14 13 25 31 25 40 0 21 -34 19 -55 -5 -40 -45 -95 -12 -95 57 0 64
63 100 92 53 15 -24 58 -27 58 -5 0 9 -11 27 -25 40 -37 37 -106 35 -146 -4z"/>
<path d="M12130 5965 l0 -115 25 0 c22 0 25 4 25 34 0 32 2 34 41 39 55 7 79
31 79 79 0 59 -26 78 -105 78 l-65 0 0 -115z m118 47 c5 -30 -14 -52 -44 -52
-21 0 -24 5 -24 41 0 39 1 40 33 37 25 -2 33 -8 35 -26z"/>
<path d="M12371 6057 c-18 -47 -71 -199 -71 -203 0 -2 11 -4 25 -4 18 0 28 7
35 25 8 21 16 25 50 25 34 0 42 -4 50 -25 7 -18 17 -25 35 -25 14 0 25 1 25 3
-1 1 -18 52 -39 112 -37 106 -39 110 -70 113 -25 3 -33 -1 -40 -21z m57 -84
c11 -32 10 -33 -20 -33 -23 0 -29 3 -24 16 3 9 9 27 12 41 8 28 17 21 32 -24z"/>
<path d="M13580 5965 l0 -115 25 0 25 0 0 115 0 115 -25 0 -25 0 0 -115z"/>
<path d="M13680 6044 c0 -9 -8 -23 -17 -30 -17 -13 -17 -15 0 -25 13 -7 17
-23 17 -62 0 -60 12 -77 52 -77 30 0 40 26 13 36 -11 4 -15 21 -15 55 0 37 4
49 15 49 8 0 15 7 15 15 0 8 -7 15 -15 15 -8 0 -15 9 -15 20 0 15 -7 20 -25
20 -17 0 -25 -6 -25 -16z"/>
<path d="M13990 6045 c0 -9 -7 -18 -15 -21 -8 -4 -15 -12 -15 -19 0 -7 7 -15
15 -19 11 -4 15 -21 15 -59 0 -60 12 -77 52 -77 30 0 40 26 13 36 -11 4 -15
21 -15 55 0 37 4 49 15 49 8 0 15 7 15 15 0 8 -7 15 -15 15 -8 0 -15 9 -15 20
0 15 -7 20 -25 20 -16 0 -25 -6 -25 -15z"/>
<path d="M12647 6007 c-38 -27 -38 -117 0 -144 27 -20 90 -16 113 7 27 27 25
40 -5 40 -14 0 -25 -4 -25 -9 0 -21 -35 -22 -52 -1 -23 28 -23 42 1 71 18 23
20 23 38 6 26 -23 65 -23 56 1 -3 9 -13 23 -21 30 -20 16 -83 16 -105 -1z"/>
<path d="M12829 6001 c-33 -26 -34 -101 -3 -132 30 -29 88 -28 120 2 33 31 34
96 1 127 -29 28 -86 29 -118 3z m79 -23 c17 -17 15 -73 -3 -88 -34 -28 -68 27
-46 76 12 26 30 31 49 12z"/>
<path d="M13000 5935 c0 -84 0 -85 25 -85 23 0 25 3 25 49 0 64 7 81 35 81 28
0 35 -17 35 -81 0 -42 3 -49 20 -49 18 0 20 7 20 73 0 82 -9 97 -55 97 -17 0
-36 -5 -43 -12 -9 -9 -12 -9 -12 0 0 7 -11 12 -25 12 -25 0 -25 -1 -25 -85z"/>
<path d="M13216 6004 c-9 -8 -16 -23 -16 -33 0 -23 31 -51 56 -51 27 0 48 -16
40 -29 -9 -14 -46 -15 -46 -1 0 6 -11 10 -25 10 -15 0 -25 -6 -25 -15 0 -36
104 -49 133 -17 34 37 12 82 -40 82 -10 0 -25 5 -33 10 -12 7 -12 12 -2 22 10
10 17 10 32 0 40 -24 69 -5 38 26 -18 18 -94 15 -112 -4z"/>
<path d="M13380 5957 c0 -74 18 -107 59 -107 15 0 32 5 39 12 9 9 12 9 12 0 0
-7 11 -12 25 -12 25 0 25 1 25 85 0 84 0 85 -25 85 -23 0 -24 -4 -27 -62 -3
-60 -4 -63 -28 -63 -24 0 -25 3 -28 63 -3 58 -4 62 -27 62 -24 0 -25 -3 -25
-63z"/>
<path d="M13807 6002 c-10 -10 -17 -22 -17 -25 0 -11 39 -8 60 5 15 9 22 10
31 1 17 -17 2 -33 -32 -33 -28 0 -69 -30 -69 -51 0 -6 5 -19 10 -29 9 -16 21
-19 80 -19 l70 1 0 67 c0 53 -4 72 -18 84 -26 23 -94 22 -115 -1z m79 -108
c-7 -19 -51 -15 -51 6 0 15 48 32 53 18 2 -5 1 -16 -2 -24z"/>
<path d="M14100 5935 c0 -84 0 -85 25 -85 25 0 25 1 25 85 0 84 0 85 -25 85
-25 0 -25 -1 -25 -85z"/>
<path d="M14201 5994 c-48 -60 -10 -146 64 -146 74 0 112 86 64 146 -16 21
-29 26 -64 26 -35 0 -48 -5 -64 -26z m88 -18 c17 -20 10 -77 -11 -89 -24 -16
-48 8 -48 47 0 49 34 73 59 42z"/>
<path d="M14380 5935 c0 -84 0 -85 25 -85 23 0 24 4 27 63 3 59 4 62 30 65 24
3 28 -1 34 -32 3 -20 4 -50 2 -66 -4 -26 -1 -30 19 -30 22 0 23 4 23 66 0 83
-11 104 -53 104 -18 0 -38 -5 -45 -12 -9 -9 -12 -9 -12 0 0 7 -11 12 -25 12
-25 0 -25 -1 -25 -85z"/>
<path d="M7392 5985 c0 -16 2 -22 5 -12 2 9 2 23 0 30 -3 6 -5 -1 -5 -18z"/>
<path d="M7382 5920 c0 -14 2 -19 5 -12 2 6 2 18 0 25 -3 6 -5 1 -5 -13z"/>
<path d="M5283 5580 c-47 -19 -66 -100 -39 -163 18 -43 163 -180 182 -173 29
11 26 36 -9 75 -53 59 -67 92 -67 160 0 67 -13 111 -32 110 -7 0 -23 -4 -35
-9z"/>
<path d="M9223 5523 c-29 -2 -53 -9 -53 -14 0 -6 5 -7 11 -3 8 5 8 1 0 -14 -6
-11 -11 -29 -11 -39 1 -15 4 -13 16 7 14 23 14 23 9 3 -6 -23 12 -33 29 -16
16 16 35 9 41 -14 3 -14 5 -26 3 -27 -23 -10 -39 -23 -36 -29 2 -5 -4 -12 -13
-17 -12 -7 -15 -24 -13 -82 1 -40 3 -85 3 -100 1 -16 8 -28 19 -31 16 -4 16
-5 0 -6 -19 -1 -25 -35 -9 -45 4 -3 4 -28 -2 -55 -7 -36 -13 -48 -23 -44 -20
7 -17 -10 5 -36 23 -27 17 -51 -13 -52 -21 0 -21 -1 2 -11 19 -10 22 -17 16
-42 -3 -17 -12 -44 -20 -59 -12 -25 -11 -28 1 -23 8 3 21 -4 29 -16 8 -12 20
-17 28 -13 7 3 0 -5 -17 -19 -22 -19 -26 -26 -13 -26 9 0 23 7 31 15 13 13 16
12 22 -3 3 -9 1 -18 -4 -20 -6 -2 -11 -10 -11 -18 0 -8 -12 -27 -27 -41 -24
-22 -25 -24 -5 -14 12 7 27 9 32 6 6 -4 9 -1 8 6 -2 6 3 14 10 16 8 3 10 -1 6
-11 -3 -9 -1 -16 6 -16 7 0 6 -6 -4 -16 -11 -11 -14 -24 -9 -42 4 -15 7 -37 6
-49 0 -13 3 -23 7 -23 5 0 7 -12 5 -27 -1 -16 -8 -27 -15 -25 -6 1 -8 -2 -5
-8 4 -6 4 -22 1 -35 -5 -18 -11 -23 -23 -18 -12 5 -15 2 -10 -9 3 -10 -4 -27
-19 -43 -14 -15 -23 -33 -21 -40 4 -8 -3 -10 -19 -7 -19 3 -23 1 -18 -12 4
-11 1 -16 -10 -16 -9 0 -16 -4 -16 -10 0 -5 -5 -10 -11 -10 -6 0 -20 -11 -30
-24 -11 -14 -28 -28 -39 -31 -12 -4 -20 -15 -20 -28 0 -16 -3 -18 -11 -10 -14
14 -39 -6 -39 -31 0 -9 -7 -16 -15 -16 -8 0 -19 -9 -25 -20 -6 -11 -16 -20
-23 -20 -7 0 -23 -7 -35 -16 -18 -13 -21 -19 -11 -30 8 -10 8 -14 0 -14 -6 0
-11 -4 -11 -10 0 -5 9 -10 21 -10 21 0 21 0 -2 -18 -12 -11 -18 -21 -13 -25 6
-3 25 8 42 25 28 26 31 32 20 46 -12 15 -11 16 4 3 13 -10 15 -18 8 -31 -6
-11 -6 -21 -1 -24 5 -3 11 0 14 8 4 9 14 12 26 9 24 -6 27 6 9 26 -7 8 -1 6
15 -4 17 -11 27 -13 27 -6 0 7 6 9 13 5 6 -4 9 -4 5 1 -11 11 11 35 31 35 13
0 13 -2 2 -9 -9 -6 -10 -11 -2 -15 6 -4 11 -2 11 4 0 6 4 8 10 5 5 -3 7 0 4 8
-3 8 1 17 8 20 18 6 52 -19 43 -32 -3 -6 0 -9 8 -5 9 3 13 13 10 25 -3 10 0
19 6 19 6 0 11 -7 11 -15 0 -14 12 -19 33 -16 4 0 7 -5 7 -12 1 -6 6 0 13 15
11 24 14 26 31 13 16 -12 18 -19 8 -39 -8 -19 -8 -26 1 -30 8 -3 8 -5 -2 -5
-11 -1 -11 -4 0 -18 11 -13 11 -15 1 -9 -9 5 -19 1 -27 -12 -8 -10 -28 -22
-45 -26 -20 -4 -29 -10 -24 -17 4 -8 3 -9 -4 -5 -6 4 -23 0 -36 -9 -14 -9 -33
-18 -43 -20 -10 -1 -17 -8 -15 -15 1 -6 -2 -9 -8 -5 -6 4 -18 1 -26 -6 -8 -6
-17 -9 -20 -6 -9 9 -45 -33 -39 -44 4 -6 -3 -8 -19 -5 -26 5 -72 -25 -59 -38
4 -4 -5 -2 -21 4 -24 9 -27 8 -23 -5 4 -8 3 -14 -1 -13 -9 2 -39 -9 -72 -26
-14 -8 -31 -11 -39 -8 -8 3 -11 0 -7 -7 5 -7 -2 -11 -19 -11 -15 0 -33 -7 -41
-15 -9 -8 -26 -16 -40 -16 -29 -2 -31 -2 -69 -18 -28 -12 -71 -27 -105 -36
-32 -9 -90 -32 -96 -38 -11 -11 45 -8 96 4 25 6 54 13 65 14 89 14 365 85 485
124 30 10 100 33 155 51 55 18 127 45 160 60 101 45 115 50 145 50 17 0 30 -4
30 -10 0 -11 -40 -50 -52 -50 -5 0 -6 -5 -2 -12 5 -8 2 -9 -9 -5 -10 3 -17 2
-17 -3 0 -5 -11 -12 -25 -16 -14 -3 -25 -9 -25 -13 0 -3 -17 -15 -37 -26 -21
-10 -49 -27 -63 -36 -14 -9 -28 -17 -33 -18 -25 -3 -57 -14 -57 -20 0 -4 -10
-8 -22 -8 -13 -1 -24 -7 -26 -13 -2 -5 -8 -8 -12 -5 -5 3 -32 -6 -59 -20 -28
-14 -59 -26 -70 -28 -10 -2 -26 -9 -34 -16 -9 -6 -25 -13 -36 -14 -12 -1 -21
-5 -21 -9 0 -4 -8 -8 -17 -8 -10 0 -33 -9 -51 -20 -18 -11 -37 -18 -42 -15 -5
3 -12 0 -15 -6 -4 -5 -13 -8 -21 -5 -8 3 -14 2 -14 -3 0 -8 -30 -21 -55 -25
-5 0 -15 -12 -21 -25 -14 -27 -44 -49 -44 -31 0 5 -5 10 -11 10 -8 0 -8 -5 1
-15 15 -18 47 -20 53 -2 3 9 8 8 22 -3 11 -9 16 -10 11 -2 -11 19 3 34 18 19
8 -6 12 -15 9 -19 -2 -5 -1 -13 3 -19 5 -8 9 -8 14 1 4 7 19 13 34 13 14 1 26
5 26 9 0 4 6 5 14 2 8 -3 21 4 29 16 12 17 16 18 26 6 6 -8 11 -18 10 -22 -1
-5 3 -20 9 -34 6 -14 11 -19 11 -11 1 10 5 11 14 3 7 -6 76 -9 185 -7 159 2
242 -6 242 -25 0 -15 -39 -42 -51 -34 -8 4 -10 3 -5 -4 4 -7 1 -13 -8 -13 -18
-2 -17 -1 -71 -17 -22 -6 -51 -13 -65 -14 -14 -2 -35 -9 -47 -16 -14 -8 -24
-9 -28 -2 -4 6 -11 7 -17 4 -6 -4 -25 -8 -42 -10 -64 -5 -116 -13 -126 -19 -5
-3 -10 0 -10 7 0 11 -2 11 -9 0 -5 -9 -17 -11 -34 -6 -15 3 -27 2 -27 -2 0 -5
-33 -10 -72 -11 -40 -1 -74 -5 -75 -10 -2 -4 -22 -7 -45 -7 -24 1 -55 -5 -70
-12 -15 -8 -30 -14 -33 -14 -20 1 -25 -1 -25 -8 0 -4 15 -8 33 -8 17 -1 79 -7
137 -14 58 -7 121 -14 140 -15 19 -2 35 -4 35 -5 0 -1 13 -3 29 -5 16 -2 32
-9 36 -16 5 -8 9 -8 14 0 5 8 17 7 42 -4 18 -7 34 -12 34 -9 0 2 12 -1 28 -9
15 -7 41 -13 57 -12 17 1 36 -5 43 -12 7 -7 21 -13 31 -13 10 0 30 -14 45 -32
26 -32 29 -55 7 -50 -6 1 -11 -7 -11 -18 0 -14 -5 -18 -17 -13 -10 4 -14 2
-10 -4 8 -13 -25 -12 -34 1 -4 4 -10 3 -13 -3 -4 -6 -2 -11 3 -11 6 0 11 -5
11 -11 0 -6 -7 -9 -15 -5 -8 3 -15 1 -15 -4 0 -6 9 -10 20 -10 20 0 26 -11 13
-24 -11 -11 -11 -50 1 -59 8 -6 7 -10 -1 -14 -18 -7 -16 -23 5 -39 15 -12 13
-13 -16 -10 -27 3 -30 1 -21 -10 9 -11 8 -19 -7 -36 l-19 -22 29 22 c16 12 34
22 42 22 7 0 14 3 17 8 2 4 2 0 -1 -8 -2 -8 -5 -21 -6 -28 -1 -8 -8 -17 -15
-22 -8 -4 -10 -13 -7 -19 4 -6 2 -11 -3 -11 -6 0 -11 -7 -11 -15 0 -7 -7 -18
-16 -23 -19 -10 -11 -32 12 -32 8 0 14 -5 14 -10 0 -7 -6 -7 -20 0 -14 8 -20
8 -20 0 0 -6 -4 -9 -10 -5 -5 3 -6 13 -3 22 6 15 5 16 -9 3 -9 -8 -12 -16 -7
-18 5 -2 9 -11 9 -19 0 -12 -3 -13 -13 -4 -11 8 -18 6 -33 -11 -10 -12 -14
-18 -7 -15 18 11 25 -10 9 -26 -8 -8 -12 -17 -9 -21 11 -11 23 -6 23 9 0 8 5
15 10 15 17 0 11 -19 -10 -32 -11 -7 -20 -19 -20 -26 0 -8 5 -10 13 -6 8 5 7
2 -2 -9 -17 -22 -7 -34 14 -17 10 8 15 9 15 1 0 -6 8 -11 18 -11 11 0 5 -8
-18 -22 -24 -14 -30 -23 -20 -26 7 -3 16 0 18 7 2 6 8 11 14 11 6 0 8 -6 5
-14 -3 -7 0 -19 6 -25 8 -8 7 -11 -6 -11 -9 0 -17 5 -17 10 0 17 -17 11 -24
-7 -3 -10 -9 -24 -12 -31 -4 -8 0 -10 10 -6 21 8 22 -23 2 -45 -8 -9 -16 -23
-18 -31 -2 -8 -7 -18 -13 -22 -5 -4 -7 -10 -3 -13 3 -3 13 1 21 10 10 9 18 11
22 5 3 -5 1 -10 -6 -10 -8 0 -9 -11 -5 -36 4 -21 3 -41 -4 -49 -7 -9 -7 -21 0
-39 17 -45 -1 -141 -25 -132 -8 3 -15 0 -17 -5 -2 -5 -13 -11 -24 -11 -11 -1
-22 -7 -23 -13 -1 -5 -3 -21 -5 -35 -2 -14 -7 -34 -12 -44 -5 -13 -3 -21 4
-24 15 -5 16 -32 0 -32 -6 0 -3 -9 7 -20 16 -17 16 -20 2 -20 -9 0 -18 -9 -22
-19 -6 -20 -32 -19 -46 2 -3 4 -14 1 -24 -9 -17 -17 -18 -17 -33 2 -12 16 -14
16 -9 2 4 -10 2 -18 -3 -18 -6 0 -10 7 -10 16 0 11 -5 14 -17 10 -9 -4 -20 -1
-25 6 -6 10 -8 10 -8 1 0 -7 -5 -13 -11 -13 -6 0 -9 7 -6 14 4 10 1 13 -9 9
-7 -3 -14 -9 -14 -13 0 -8 -59 9 -70 20 -3 3 -14 6 -25 8 -29 4 -39 7 -51 15
-6 3 -54 14 -105 24 -174 32 -530 16 -572 -26 -5 -5 81 -8 205 -7 117 1 254
-2 303 -7 50 -4 98 -9 108 -10 9 -1 17 -5 17 -9 0 -4 6 -8 14 -8 39 0 226
-108 226 -131 0 -6 4 -7 10 -4 5 3 12 -6 16 -20 3 -14 10 -25 15 -25 5 0 9 -7
9 -15 0 -8 11 -25 25 -39 14 -14 25 -23 25 -21 0 6 69 -64 90 -90 13 -16 11
-16 -17 3 -37 26 -44 27 -37 7 4 -8 1 -15 -5 -15 -6 0 -11 5 -11 10 0 6 -7 10
-16 10 -8 0 -12 5 -9 10 3 5 -3 10 -15 10 -22 0 -60 19 -72 35 -4 6 -8 6 -8 1
0 -5 -9 -1 -20 9 -11 10 -23 15 -26 12 -4 -4 -19 2 -33 12 -73 50 -65 39 24
-34 74 -61 121 -105 112 -105 -4 0 2 -10 13 -22 14 -15 17 -24 9 -27 -7 -2
-17 3 -23 11 -16 21 -40 27 -53 13 -12 -13 -7 -25 9 -25 5 0 7 4 4 9 -4 5 3 7
14 4 23 -6 26 -19 6 -26 -8 -3 -35 10 -60 29 l-46 35 32 -48 c34 -50 45 -83
28 -83 -6 0 -10 -4 -10 -10 0 -5 7 -7 15 -4 16 6 21 -20 9 -50 -9 -24 -26 -19
-22 6 2 12 -3 23 -12 25 -13 4 -13 3 -1 -5 11 -8 7 -10 -13 -9 -15 1 -29 9
-32 20 -3 9 -10 17 -15 17 -13 0 -11 -18 4 -23 8 -4 7 -6 -3 -6 -22 -1 -96 61
-138 116 -51 67 -82 100 -82 86 0 -6 3 -13 8 -15 13 -6 74 -128 77 -156 2 -15
-2 -33 -7 -39 -8 -9 -4 -15 13 -22 24 -10 24 -10 -3 -10 -16 -1 -29 5 -29 12
-1 6 -36 44 -78 82 -42 39 -66 58 -53 44 12 -14 22 -28 22 -32 0 -7 24 -38 54
-70 17 -18 17 -21 3 -32 -14 -10 -14 -12 3 -23 17 -10 18 -9 13 6 -4 13 -3 14
6 6 6 -6 9 -18 5 -28 -6 -16 -8 -16 -26 1 -11 10 -27 30 -34 46 -15 28 -38 29
-28 2 4 -8 10 -12 15 -9 5 3 6 -1 3 -9 -3 -8 -15 -13 -28 -12 -21 3 -23 -1
-20 -32 2 -24 -1 -33 -10 -30 -7 3 -13 -4 -14 -16 -1 -16 1 -18 8 -8 7 12 11
11 26 -4 13 -13 14 -17 4 -13 -25 9 -48 -9 -45 -37 2 -14 -1 -23 -7 -19 -5 3
-7 12 -4 19 2 7 -7 18 -20 24 -30 13 -44 14 -24 1 13 -8 13 -10 -1 -10 -9 0
-19 7 -23 15 -3 8 -12 15 -21 15 -16 0 -21 15 -7 23 4 2 1 2 -5 1 -7 -2 -13 1
-13 6 0 6 -7 10 -16 10 -8 0 -12 -5 -8 -11 5 -8 1 -8 -14 0 -27 14 -27 14 -29
-10 -1 -14 3 -19 13 -15 8 3 14 1 14 -4 0 -6 -10 -10 -21 -10 -17 0 -20 -5
-17 -23 4 -23 -14 -51 -26 -40 -3 4 -6 1 -6 -5 0 -7 -11 -9 -30 -5 -29 5 -44
-10 -17 -20 6 -2 9 -7 6 -11 -3 -4 -17 -2 -30 3 -32 12 -68 -11 -50 -32 18
-22 -13 -44 -36 -26 -15 12 -16 12 -10 -4 4 -10 7 -21 7 -23 0 -3 5 -2 10 1
15 9 12 -8 -5 -31 -13 -18 -14 -18 -15 -1 0 10 -5 15 -10 12 -6 -4 -18 -1 -26
6 -12 10 -13 9 -8 -7 4 -10 12 -25 18 -33 9 -12 7 -13 -8 -8 -12 5 -25 2 -36
-8 -12 -11 -20 -13 -25 -6 -3 6 -1 11 5 11 6 0 8 5 5 10 -3 6 2 10 11 10 13 0
15 3 7 11 -7 7 -18 3 -36 -15 -17 -17 -22 -28 -15 -33 8 -4 5 -9 -8 -13 -10
-4 -24 -4 -29 1 -15 11 -105 -10 -105 -25 0 -7 -7 -13 -15 -13 -10 0 -14 6
-10 15 4 10 0 12 -11 8 -8 -3 -18 -6 -20 -6 -2 0 -4 -6 -4 -14 0 -8 -15 -17
-35 -20 -19 -4 -35 -11 -35 -16 0 -17 -31 2 -40 24 -6 15 -9 17 -9 4 -1 -12
-9 -15 -35 -13 -21 2 -39 -2 -47 -11 -12 -15 -34 -20 -25 -6 3 5 -4 8 -16 7
-13 -1 -22 -9 -24 -21 -2 -10 -12 -26 -23 -35 -11 -9 -17 -20 -13 -24 4 -5 1
-5 -5 -1 -7 4 -13 22 -14 39 0 18 -3 26 -6 20 -2 -7 -16 -13 -30 -13 -21 0
-23 -2 -13 -15 7 -8 17 -12 23 -8 7 4 8 0 4 -11 -4 -10 -7 -20 -7 -22 0 -5
-43 18 -50 27 -3 4 -21 5 -40 4 -47 -4 -47 -4 -30 -15 9 -6 17 -5 22 3 6 9 8
9 8 0 0 -13 -27 -43 -39 -43 -5 0 -14 7 -21 15 -14 17 -50 20 -50 4 0 -6 6 -9
14 -6 7 3 20 -3 29 -14 16 -18 16 -19 -2 -19 -10 0 -26 9 -37 21 -17 19 -19
19 -25 2 -7 -16 -8 -17 -8 -1 -1 13 -13 20 -41 24 -22 4 -40 11 -40 17 0 6 -3
7 -7 4 -3 -4 -13 -1 -21 6 -13 9 -14 9 -8 0 11 -19 -5 -15 -20 5 -9 11 -13 13
-14 4 0 -8 -5 -10 -12 -6 -7 5 -9 2 -6 -7 3 -8 -1 -20 -9 -28 -13 -12 -14 -11
-9 7 5 16 0 23 -23 35 -23 11 -28 12 -25 2 3 -7 -2 -28 -12 -47 -10 -18 -19
-44 -19 -58 -3 -41 -5 -44 -17 -32 -8 8 -8 15 2 27 11 13 10 18 -6 30 -24 18
-35 19 -33 3 3 -27 -2 -38 -22 -49 -19 -10 -20 -8 -14 10 7 24 -12 30 -21 6
-7 -17 -34 -21 -34 -4 0 5 -5 7 -10 4 -7 -4 -7 -12 0 -25 5 -10 10 -21 10 -24
0 -8 -34 6 -42 18 -5 8 -8 7 -8 -1 0 -7 6 -16 14 -20 19 -11 25 -35 14 -57 -7
-12 -6 -22 1 -29 17 -17 13 -31 -4 -17 -8 7 -15 9 -15 4 0 -5 -5 -2 -10 6 -8
12 -10 11 -10 -7 0 -19 4 -21 44 -19 34 3 43 0 39 -10 -3 -8 0 -14 6 -14 6 0
8 -7 5 -15 -5 -13 -9 -12 -24 5 -18 21 -50 27 -50 10 0 -5 5 -10 10 -10 6 0
10 -4 10 -10 0 -18 -18 -11 -25 10 -3 11 -13 20 -20 20 -9 0 -12 6 -8 16 5 13
2 15 -14 10 -27 -9 -55 3 -49 21 3 8 1 11 -4 8 -6 -3 -10 -1 -10 5 0 6 -5 8
-10 5 -7 -4 -7 -11 -2 -18 5 -7 11 -24 14 -38 4 -23 1 -26 -18 -25 -13 0 -26
7 -29 14 -3 9 -15 11 -40 6 -23 -4 -35 -2 -35 5 0 6 -5 11 -11 11 -6 0 -9 -6
-6 -14 3 -8 0 -17 -8 -20 -9 -3 -12 0 -8 10 7 19 -6 18 -29 -3 -11 -9 -18 -11
-18 -5 0 7 5 12 10 12 6 0 10 7 10 15 0 18 -16 20 -23 3 -3 -7 -6 -2 -6 11 -1
20 -3 21 -16 11 -11 -9 -12 -17 -4 -32 7 -14 7 -23 -2 -34 -17 -21 -31 -17
-19 5 14 27 13 31 -5 25 -8 -4 -22 -1 -30 6 -12 10 -15 7 -21 -15 -4 -17 -11
-24 -20 -21 -8 3 -14 -1 -14 -9 0 -8 -4 -15 -10 -15 -5 0 -10 -9 -10 -20 0
-11 -7 -23 -15 -26 -8 -4 -15 -17 -15 -29 0 -13 -6 -26 -12 -28 -10 -4 -10 -6
0 -6 6 -1 12 -8 12 -16 0 -8 -6 -15 -12 -15 -9 0 -8 -4 2 -10 13 -9 13 -11 0
-20 -10 -6 581 -10 1729 -10 1425 0 1742 2 1738 13 -3 7 -15 49 -27 92 -12 44
-26 85 -30 90 -17 22 -54 216 -84 440 -16 116 -26 153 -113 413 -51 156 -54
167 -44 214 6 27 16 58 21 69 6 10 20 69 31 129 10 61 24 119 29 128 5 9 19
51 30 92 12 41 35 122 51 180 29 103 71 298 110 515 10 61 23 119 29 130 5 11
18 76 30 145 11 69 26 141 32 160 13 40 51 264 78 462 17 125 18 176 11 600
-7 428 -10 468 -28 523 -12 34 -29 99 -38 145 -9 47 -20 90 -24 95 -4 6 -15
35 -26 65 -10 30 -24 64 -31 75 -7 11 -15 38 -19 60 -12 79 -28 140 -42 161
-7 11 -22 61 -34 110 -11 49 -29 127 -40 174 -10 47 -28 104 -39 127 -11 24
-20 47 -20 52 0 12 -59 72 -68 69 -4 -1 -31 -3 -59 -5z m1 -728 c-4 -8 -8 -15
-10 -15 -2 0 -4 7 -4 15 0 8 4 15 10 15 5 0 7 -7 4 -15z m-443 -1428 c-10 -9
-11 -8 -5 6 3 10 9 15 12 12 3 -3 0 -11 -7 -18z m393 -538 c-6 -11 -24 -2 -24
11 0 5 7 7 15 4 8 -4 12 -10 9 -15z m10 -44 c-4 -8 -13 -15 -22 -15 -13 0 -12
3 4 15 24 18 25 18 18 0z m-74 -441 c0 -8 -19 -13 -24 -6 -3 5 1 9 9 9 8 0 15
-2 15 -3z m-45 -362 c-3 -3 -11 0 -18 7 -9 10 -8 11 6 5 10 -3 15 -9 12 -12z
m25 -42 c-24 -15 -37 -11 -16 5 11 8 22 12 25 9 3 -3 -1 -9 -9 -14z m-152
-695 c-3 -3 -9 2 -12 12 -6 14 -5 15 5 6 7 -7 10 -15 7 -18z m-98 -75 c0 -11
5 -20 12 -20 6 0 8 -3 5 -6 -9 -9 -37 15 -37 32 0 8 5 14 10 14 6 0 10 -9 10
-20z m-814 -375 c19 -14 19 -14 -2 -15 -12 0 -24 7 -28 15 -7 19 5 19 30 0z
m-36 -55 c0 -5 -2 -10 -4 -10 -3 0 -8 5 -11 10 -3 6 -1 10 4 10 6 0 11 -4 11
-10z m-764 -272 c-2 -14 -8 -18 -28 -18 -6 0 -3 7 8 15 23 18 23 18 20 3z
m-746 -278 c0 -5 -2 -10 -4 -10 -3 0 -8 5 -11 10 -3 6 -1 10 4 10 6 0 11 -4
11 -10z"/>
<path d="M6026 5419 c-15 -4 -36 -15 -45 -23 -9 -8 -20 -15 -26 -15 -5 0 -11
-4 -13 -9 -4 -12 62 -23 99 -15 30 6 59 -10 59 -31 0 -6 -5 -3 -11 6 -9 16
-13 17 -38 3 -16 -8 -32 -11 -36 -7 -5 4 -5 1 -1 -5 4 -7 16 -13 26 -13 13 0
17 -5 14 -15 -4 -8 1 -17 10 -21 26 -10 18 -26 -11 -22 -20 2 -29 9 -31 26 -2
12 -10 22 -19 22 -11 0 -14 -6 -9 -22 3 -13 6 -29 6 -35 0 -7 7 -13 15 -13 8
0 15 -4 15 -9 0 -11 -16 -16 -71 -25 -45 -8 -68 -30 -42 -40 27 -11 153 5 209
26 29 10 56 18 60 17 21 -4 24 3 9 29 -29 53 -45 68 -54 53 -5 -8 -7 -19 -5
-25 6 -15 -50 -36 -67 -25 -9 6 -10 9 -2 9 17 0 73 50 73 64 0 7 -9 23 -20 36
-11 13 -20 27 -20 32 0 5 -4 7 -8 4 -5 -3 -8 3 -8 12 1 9 -3 18 -8 19 -5 1
-12 5 -15 11 -3 5 -18 5 -35 1z"/>
<path d="M9040 5413 c0 -7 -8 -13 -18 -13 -11 0 -27 -9 -37 -20 -10 -11 -24
-20 -32 -20 -7 0 -13 -5 -13 -11 0 -5 -5 -7 -11 -4 -5 4 -18 -3 -28 -14 -10
-12 -25 -21 -32 -21 -8 0 -19 -10 -24 -22 -6 -13 -17 -23 -25 -23 -25 -1 -42
-16 -36 -32 4 -9 1 -22 -5 -29 -21 -25 10 -16 34 10 13 14 35 28 50 31 15 4
27 14 27 21 0 8 12 20 28 27 15 6 31 17 35 24 9 14 33 17 40 6 2 -5 3 -3 1 3
-1 7 11 15 29 18 24 5 28 9 18 19 -9 9 -14 9 -20 -2 -5 -8 -11 -9 -15 -3 -7
12 19 23 39 16 17 -7 20 13 5 36 -6 10 -10 11 -10 3z"/>
<path d="M9131 5411 c-7 -5 -21 -6 -31 -4 -25 7 -35 -16 -16 -35 15 -15 16
-15 16 1 0 10 8 17 19 17 11 0 23 5 26 11 10 14 2 20 -14 10z"/>
<path d="M5225 5349 c-7 -18 -22 -95 -40 -199 -8 -47 -24 -132 -34 -190 -11
-58 -29 -172 -41 -255 -12 -82 -27 -184 -35 -225 -13 -74 -31 -187 -59 -390
-9 -58 -24 -166 -35 -240 -21 -139 -49 -347 -58 -435 -7 -73 -22 -231 -28
-295 -2 -30 -7 -73 -9 -95 -3 -22 -6 -68 -8 -102 -2 -35 -5 -63 -8 -63 -3 0
-5 -44 -6 -98 -2 -197 -11 -439 -17 -449 -3 -5 -5 -33 -3 -61 2 -29 0 -52 -4
-52 -4 0 -7 -13 -6 -29 1 -16 4 -27 7 -25 4 2 10 -3 13 -11 3 -9 0 -18 -7 -20
-13 -5 -15 -84 -3 -104 4 -6 4 -17 -1 -23 -6 -11 -13 -123 -15 -253 0 -16 -4
-43 -8 -60 -5 -16 -11 -57 -14 -90 -3 -33 -8 -71 -11 -85 -3 -14 -8 -45 -11
-70 -6 -51 -17 -96 -72 -300 -46 -168 -51 -181 -70 -196 -12 -8 -14 -24 -9
-67 4 -40 2 -56 -6 -54 -14 2 -33 -84 -23 -108 6 -16 21 -17 184 -12 99 3 192
11 210 17 l34 12 -8 52 c-4 28 -8 74 -9 101 -2 28 -6 91 -10 141 -4 62 -3 94
4 98 7 5 11 47 11 110 0 115 13 171 66 279 19 39 34 76 34 83 0 7 16 54 36
106 38 101 39 131 4 175 -11 14 -20 38 -20 54 0 15 -5 39 -11 53 -9 19 -9 32
-1 53 20 48 14 203 -9 245 -7 13 -14 55 -15 93 -2 39 -5 79 -7 90 -3 11 -8 40
-12 65 -6 41 -20 95 -45 176 -24 74 -41 268 -40 451 0 164 17 408 35 493 3 14
16 141 30 283 14 142 32 303 40 358 8 55 20 157 26 227 16 206 82 613 119 742
14 49 12 86 -5 100 -12 10 -16 10 -20 -1z"/>
<path d="M7380 5295 c0 -28 -41 -178 -93 -340 -20 -60 -50 -162 -67 -225 -17
-63 -37 -133 -45 -155 -32 -93 -76 -250 -109 -385 -20 -80 -43 -167 -51 -195
-8 -27 -35 -118 -60 -202 -24 -83 -92 -295 -150 -469 -58 -174 -107 -327 -110
-338 -2 -12 -9 -38 -15 -58 -5 -21 -14 -53 -19 -72 -4 -18 -11 -38 -14 -43 -4
-6 -9 -28 -12 -49 -3 -21 -12 -75 -20 -119 -9 -44 -17 -89 -19 -100 -2 -11 -4
-20 -6 -20 -1 0 -4 -16 -6 -35 -3 -19 -14 -69 -25 -111 -11 -41 -21 -82 -23
-90 -1 -8 -8 -32 -14 -54 -14 -49 -19 -79 -33 -175 -6 -41 -17 -102 -25 -135
-9 -33 -24 -96 -35 -140 -10 -44 -32 -120 -48 -170 -101 -313 -102 -320 -108
-415 -6 -106 9 -189 30 -171 7 5 19 6 26 2 8 -5 66 -7 130 -6 115 4 221 25
221 46 0 6 6 7 13 4 6 -4 5 0 -4 7 -12 9 -14 20 -8 36 5 12 5 22 1 22 -4 0 -8
19 -8 43 -1 23 -5 69 -10 102 -12 90 -4 1167 10 1235 2 14 10 75 16 135 11
108 30 225 49 295 51 186 198 637 250 768 11 28 18 52 16 52 -3 0 6 17 19 38
49 78 92 232 117 417 6 50 23 122 37 160 13 39 55 159 92 269 56 165 76 210
119 272 28 41 51 77 51 80 0 3 11 19 25 36 14 16 25 36 25 43 0 7 4 15 10 17
5 2 13 25 16 51 l7 48 -63 60 c-34 32 -66 59 -71 59 -5 0 -9 -11 -9 -25z"/>
<path d="M5886 5297 c-17 -12 -17 -14 -2 -20 21 -8 21 -24 -1 -30 -17 -4 -17
-5 -1 -6 11 -1 15 -7 12 -15 -9 -23 13 -28 53 -11 33 14 36 18 21 26 -10 6
-18 16 -18 24 0 8 -5 17 -12 21 -7 4 -8 3 -4 -4 5 -8 2 -10 -8 -6 -19 7 -21
20 -3 27 8 4 7 6 -4 6 -8 1 -23 -5 -33 -12z"/>
<path d="M6261 5211 c-8 -6 -9 -11 -3 -15 6 -3 14 -1 17 5 9 14 2 20 -14 10z"/>
<path d="M5514 5198 c3 -10 1 -30 -5 -45 -17 -50 -36 -194 -26 -200 22 -14 33
22 36 120 1 10 9 17 21 17 27 0 25 24 -6 80 -14 25 -23 37 -20 28z"/>
<path d="M6298 5180 c-13 -8 -14 -14 -5 -34 12 -25 37 -24 37 1 0 8 -4 11 -10
8 -14 -9 -13 8 2 23 14 14 0 15 -24 2z"/>
<path d="M11902 5120 c-31 -42 -32 -47 -32 -142 0 -136 3 -138 155 -138 152 0
155 2 155 138 0 95 -1 100 -32 142 -31 42 -32 43 -46 21 -12 -18 -24 -21 -77
-21 -53 0 -65 3 -77 21 -14 22 -15 21 -46 -21z m216 -36 c52 -14 14 -24 -93
-24 -64 0 -115 4 -115 9 0 5 8 12 18 14 26 7 164 8 190 1z m27 -114 c-1 -91 1
-90 -119 -90 -58 0 -108 4 -111 10 -10 16 -18 107 -12 125 6 13 24 15 124 13
l118 -3 0 -55z"/>
<path d="M6327 5123 c-12 -11 -8 -23 8 -23 8 0 15 7 15 15 0 16 -12 20 -23 8z"/>
<path d="M6370 5063 c0 -32 34 -63 66 -62 28 1 29 1 4 8 -14 4 -35 22 -47 40
-18 27 -23 30 -23 14z"/>
<path d="M12450 4985 l0 -95 50 0 c37 0 55 5 70 20 24 24 25 38 5 67 -10 14
-12 24 -5 28 14 9 13 48 -2 63 -7 7 -36 12 -65 12 l-53 0 0 -95z m98 51 c5
-22 -13 -36 -45 -36 -19 0 -23 5 -23 31 0 28 2 30 32 27 23 -2 34 -9 36 -22z
m2 -71 c20 -24 4 -45 -35 -45 -32 0 -35 2 -35 30 0 26 3 30 29 30 16 0 34 -7
41 -15z"/>
<path d="M12940 4985 c0 -78 3 -95 15 -95 10 0 15 10 15 30 0 17 4 30 9 30 5
0 19 -13 31 -30 12 -16 28 -30 36 -30 19 0 18 6 -11 44 -31 41 -31 44 2 78 38
40 7 36 -34 -4 l-33 -32 0 52 c0 40 -4 52 -15 52 -12 0 -15 -17 -15 -95z"/>
<path d="M13520 4985 c0 -78 3 -95 15 -95 12 0 15 17 15 95 0 78 -3 95 -15 95
-12 0 -15 -17 -15 -95z"/>
<path d="M13760 5055 c0 -8 -4 -15 -10 -15 -5 0 -10 -7 -10 -15 0 -8 5 -15 10
-15 6 0 10 -22 10 -48 0 -51 12 -72 42 -72 22 0 24 18 3 26 -23 9 -21 90 3 99
16 6 16 7 0 19 -10 7 -18 18 -18 25 0 6 -7 11 -15 11 -8 0 -15 -7 -15 -15z"/>
<path d="M12641 5023 c-32 -27 -37 -73 -11 -106 40 -50 106 -31 116 35 5 30 2
41 -19 62 -30 30 -57 33 -86 9z m73 -35 c13 -22 -3 -72 -25 -76 -38 -7 -65 58
-37 86 17 17 48 11 62 -10z"/>
<path d="M12799 5021 c-47 -38 -19 -131 41 -131 38 0 60 20 66 62 5 30 2 41
-19 62 -31 31 -56 33 -88 7z m74 -32 c13 -20 2 -65 -18 -73 -38 -14 -67 32
-45 74 13 24 47 24 63 -1z"/>
<path d="M13178 5029 c-31 -18 -20 -30 22 -23 53 9 56 -18 3 -32 -80 -20 -70
-78 16 -81 l51 -1 0 63 c0 53 -3 66 -19 75 -25 13 -51 12 -73 -1z m62 -88 c0
-23 -37 -38 -54 -21 -8 8 -6 15 8 26 27 20 46 18 46 -5z"/>
<path d="M13396 5027 c-29 -21 -17 -58 23 -72 19 -6 37 -17 39 -23 6 -18 -24
-25 -48 -12 -26 14 -37 6 -20 -15 25 -30 100 -12 100 24 0 23 -16 37 -53 46
-28 8 -36 29 -14 38 8 3 20 1 28 -4 8 -5 20 -9 28 -9 11 0 10 5 -4 20 -21 23
-53 26 -79 7z"/>
<path d="M13605 5015 c-56 -55 -8 -140 69 -121 49 12 57 100 13 131 -31 21
-54 19 -82 -10z m73 -17 c24 -24 4 -88 -28 -88 -16 0 -40 32 -40 54 0 26 17
46 40 46 9 0 21 -5 28 -12z"/>
<path d="M6330 4891 c-17 -7 -27 -61 -11 -61 6 0 18 11 27 26 18 27 9 46 -16
35z"/>
<path d="M9185 4870 c3 -5 8 -10 11 -10 2 0 4 5 4 10 0 6 -5 10 -11 10 -5 0
-7 -4 -4 -10z"/>
<path d="M6177 4831 c-9 -15 -14 -31 -10 -35 4 -3 13 8 20 25 17 41 12 46 -10
10z"/>
<path d="M8675 4850 c4 -6 11 -8 16 -5 14 9 11 15 -7 15 -8 0 -12 -5 -9 -10z"/>
<path d="M8655 4840 c6 -10 4 -12 -9 -7 -9 4 -15 3 -11 -2 3 -5 0 -11 -7 -13
-8 -3 -9 -6 -1 -11 6 -4 18 2 27 12 13 14 14 21 5 27 -8 5 -10 3 -4 -6z"/>
<path d="M8605 4790 c-3 -5 1 -10 10 -10 9 0 13 5 10 10 -3 6 -8 10 -10 10 -2
0 -7 -4 -10 -10z"/>
<path d="M5856 4661 c-4 -5 3 -7 14 -4 23 6 26 13 6 13 -8 0 -17 -4 -20 -9z"/>
<path d="M5765 4609 c-4 -6 -5 -12 -2 -15 2 -3 7 2 10 11 7 17 1 20 -8 4z"/>
<path d="M9206 4573 c-6 -14 -5 -15 5 -6 7 7 10 15 7 18 -3 3 -9 -2 -12 -12z"/>
<path d="M8937 4453 c-12 -11 -8 -23 8 -23 8 0 15 7 15 15 0 16 -12 20 -23 8z"/>
<path d="M8880 4388 c-12 -22 -18 -38 -11 -34 6 4 11 2 11 -4 0 -6 -11 -15
-24 -20 -29 -11 -44 -32 -28 -38 7 -2 9 -9 6 -14 -4 -7 -2 -8 4 -4 6 4 9 13 5
21 -3 8 0 15 6 15 20 0 66 61 68 91 4 41 -9 36 -37 -13z"/>
<path d="M8040 4358 c-1 -13 -10 -48 -21 -78 -11 -30 -26 -80 -34 -110 -9 -30
-19 -64 -24 -75 -15 -32 -41 -117 -41 -133 0 -17 -22 -69 -56 -134 -14 -27
-23 -48 -20 -48 3 0 -1 -21 -9 -46 -7 -25 -17 -102 -21 -170 -4 -69 -11 -127
-15 -130 -5 -3 -9 -11 -9 -17 0 -7 4 -6 11 3 9 12 9 11 4 -5 -4 -11 -8 -32
-10 -46 -2 -27 -12 -59 -54 -162 -14 -34 -14 -40 -1 -32 5 3 4 -11 -3 -32 -7
-21 -12 -58 -10 -83 3 -60 -4 -93 -20 -83 -9 5 -9 3 -1 -8 20 -25 24 -60 7
-66 -8 -3 -13 -13 -10 -24 3 -11 0 -19 -5 -19 -6 0 -5 -6 2 -15 7 -9 10 -27 7
-45 -4 -16 -2 -32 4 -36 7 -4 6 -10 -1 -19 -6 -7 -7 -16 -2 -19 9 -5 8 -59 -2
-75 -4 -6 0 -23 8 -39 12 -22 12 -32 3 -41 -9 -9 -9 -14 2 -21 12 -7 13 -11 2
-24 -16 -19 -25 -96 -11 -96 5 0 6 -12 3 -27 -3 -16 -6 -36 -7 -46 -3 -20 -25
-39 -38 -31 -4 3 -5 -2 -1 -11 4 -13 8 -14 14 -4 4 8 11 10 15 6 4 -3 1 -13
-6 -22 -7 -8 -8 -15 -3 -15 6 0 8 -11 5 -25 -2 -14 -8 -23 -12 -20 -4 3 -10
-2 -13 -10 -4 -9 -1 -12 9 -8 9 3 14 -1 14 -12 0 -9 -4 -13 -10 -10 -5 3 -10
-1 -10 -9 0 -9 -4 -16 -10 -16 -5 0 -10 -5 -10 -11 0 -6 9 -8 23 -4 18 5 17 3
-5 -10 -16 -9 -28 -24 -28 -34 0 -10 -7 -21 -15 -25 -8 -3 -15 -1 -15 3 0 5
-9 7 -20 4 -12 -3 -17 -10 -13 -17 4 -6 8 -18 8 -26 0 -8 4 -20 8 -27 10 -15
-4 -23 -47 -26 -27 -3 -33 0 -29 12 2 9 -3 4 -11 -11 -18 -31 -41 -28 -49 5
-3 12 -19 65 -36 117 -30 95 -40 91 -21 -11 12 -65 18 -149 12 -166 -2 -7 -10
-13 -17 -13 -6 0 -20 -9 -29 -19 -10 -11 -27 -21 -37 -23 -14 -2 -16 -7 -9
-18 8 -12 12 -12 18 -2 7 10 11 10 21 -2 10 -11 8 -17 -9 -29 -13 -9 -17 -17
-11 -22 6 -3 11 -18 11 -32 0 -15 -3 -23 -7 -20 -7 7 -32 -22 -33 -37 0 -6 6
-1 14 9 13 18 14 17 8 -10 -5 -28 -4 -29 12 -16 15 13 19 13 27 0 14 -23 11
-30 -13 -27 -18 2 -22 -1 -20 -16 2 -11 -1 -15 -7 -11 -7 4 -11 -4 -11 -19 0
-14 -4 -27 -9 -30 -12 -8 -20 -56 -9 -56 5 0 2 -7 -6 -16 -20 -19 -21 -38 -2
-31 8 3 17 0 20 -8 3 -9 0 -12 -10 -8 -7 3 -14 0 -14 -6 0 -6 -11 -17 -25 -23
-19 -9 -22 -14 -14 -25 13 -15 33 -18 24 -3 -7 11 8 14 18 3 9 -9 -13 -34 -24
-27 -5 3 -9 -1 -9 -10 0 -9 -8 -13 -26 -11 -17 1 -27 -3 -31 -14 -2 -9 -9 -24
-14 -33 -6 -11 -6 -18 0 -18 5 0 11 4 13 8 4 11 78 55 78 47 0 -4 -16 -22 -35
-41 -20 -19 -32 -34 -29 -34 4 0 -1 -9 -11 -20 -10 -11 -13 -20 -7 -20 7 0 12
6 12 13 0 9 2 9 9 -1 6 -11 10 -10 16 5 5 10 8 21 7 24 0 3 5 6 13 6 8 0 14
-3 13 -6 -2 -19 4 -21 18 -7 8 9 26 16 40 16 13 0 24 4 24 9 0 5 17 11 38 15
20 3 63 23 95 45 32 22 74 45 95 52 49 16 62 27 62 54 0 13 8 43 18 67 11 24
22 63 26 88 4 25 14 56 23 70 19 28 20 124 3 176 -8 24 -7 48 5 99 8 36 15 99
15 138 0 40 7 122 15 182 8 61 20 153 26 205 6 52 15 115 20 140 6 25 14 82
18 127 6 65 13 90 34 121 15 21 27 43 27 50 0 6 -13 33 -30 59 -46 72 -39 114
26 152 35 21 36 22 29 71 -9 63 13 257 32 288 8 13 34 32 58 43 48 21 60 33
68 69 3 14 20 33 37 43 30 18 42 44 16 34 -30 -12 -132 -17 -145 -9 -22 16 -4
78 35 121 19 21 88 80 153 132 66 51 117 97 114 102 -3 5 -8 5 -12 0 -3 -4
-24 -17 -46 -28 -22 -11 -42 -23 -43 -28 -2 -4 -8 -5 -13 -2 -5 3 -19 0 -31
-6 -31 -17 -92 -23 -83 -9 4 6 0 17 -7 23 -12 10 -14 31 -7 122 5 61 13 130
18 155 18 76 20 100 10 100 -5 0 -9 -10 -9 -22z m-480 -2390 c0 -6 -3 -8 -7
-4 -4 3 -12 -3 -19 -15 -6 -13 -14 -17 -18 -11 -7 11 19 42 35 42 5 0 9 -5 9
-12z m-56 -33 c3 -8 1 -15 -4 -15 -6 0 -10 7 -10 15 0 8 2 15 4 15 2 0 6 -7
10 -15z m-87 -31 c-3 -3 -12 -4 -19 -1 -8 3 -5 6 6 6 11 1 17 -2 13 -5z m-3
-39 c-4 -8 -10 -15 -15 -15 -5 0 -9 7 -9 15 0 8 7 15 15 15 9 0 12 -6 9 -15z
m-19 -44 c3 -6 -3 -9 -14 -8 -11 0 -17 5 -15 9 7 11 22 10 29 -1z m-7 -61 c-7
-10 -14 -17 -17 -15 -4 4 18 35 25 35 2 0 -1 -9 -8 -20z m-48 -190 c0 -13 -5
-18 -14 -14 -8 3 -12 12 -9 20 8 21 23 17 23 -6z"/>
<path d="M8595 4360 c-5 -5 -20 -18 -32 -29 -13 -12 -26 -21 -29 -21 -8 0 -29
-24 -31 -38 -2 -6 2 -12 7 -12 6 0 10 5 10 10 0 6 7 10 15 10 8 0 15 5 15 10
0 6 5 10 12 10 13 0 58 48 58 62 0 10 -12 10 -25 -2z"/>
<path d="M8447 4232 c-26 -27 -27 -29 -6 -27 20 1 49 29 49 47 0 15 -16 8 -43
-20z"/>
<path d="M6991 4184 c0 -11 3 -14 6 -6 3 7 2 16 -1 19 -3 4 -6 -2 -5 -13z"/>
<path d="M6027 4113 c-4 -3 -7 -20 -6 -37 l1 -31 8 35 c9 36 8 45 -3 33z"/>
<path d="M8311 4117 c2 -1 13 -9 24 -17 19 -14 19 -14 6 3 -7 9 -18 17 -24 17
-6 0 -8 -1 -6 -3z"/>
<path d="M6001 3994 c-15 -61 -8 -68 9 -9 7 25 10 48 8 51 -3 2 -11 -16 -17
-42z"/>
<path d="M8827 3978 c-12 -9 -14 -17 -7 -28 7 -11 10 -11 10 -2 0 7 5 10 10 7
6 -3 10 3 10 14 0 25 -1 25 -23 9z"/>
<path d="M5981 3914 c0 -11 3 -14 6 -6 3 7 2 16 -1 19 -3 4 -6 -2 -5 -13z"/>
<path d="M5947 3785 c-17 -73 -56 -284 -63 -345 -2 -19 7 6 20 55 13 50 26
115 29 145 3 30 13 86 22 124 9 37 14 73 12 80 -2 6 -11 -21 -20 -59z"/>
<path d="M6800 3521 c-12 -24 -13 -34 -1 -27 9 6 22 46 15 46 -2 0 -8 -9 -14
-19z"/>
<path d="M5861 3334 c-6 -32 -11 -78 -11 -102 0 -25 -11 -133 -25 -241 -17
-138 -26 -268 -29 -441 -6 -279 -23 -467 -66 -725 -44 -268 -80 -527 -80 -582
0 -26 -5 -66 -10 -88 -15 -66 -25 -239 -12 -232 12 8 36 144 52 297 6 58 22
179 36 270 13 91 31 219 39 285 8 66 22 170 30 230 8 61 17 151 21 200 3 50
11 158 18 240 7 90 8 176 3 215 -5 38 -4 98 2 145 26 213 33 281 41 425 5 85
7 156 6 158 -2 1 -8 -23 -15 -54z"/>
<path d="M6745 3354 c-4 -16 -13 -46 -21 -66 -10 -29 -11 -36 -1 -32 13 5 42
112 33 121 -3 3 -8 -8 -11 -23z"/>
<path d="M8870 3365 c-8 -9 -8 -15 -2 -15 12 0 26 19 19 26 -2 2 -10 -2 -17
-11z"/>
<path d="M6690 3170 c-12 -40 -19 -74 -16 -78 9 -8 10 -4 29 72 24 92 14 96
-13 6z"/>
<path d="M0 2662 c1 -316 6 -491 12 -499 6 -7 18 -13 27 -12 12 0 11 2 -4 9
-17 7 -17 9 -2 9 20 1 21 13 6 44 -9 20 -9 21 4 4 14 -17 35 -8 24 11 -3 4 1
13 9 20 12 11 14 10 14 -5 1 -17 1 -17 14 -1 7 10 16 15 19 11 4 -3 7 3 7 15
0 12 4 22 10 22 5 0 7 -8 4 -17 -4 -14 -2 -13 7 2 6 11 14 22 15 24 2 2 14 -4
26 -15 16 -13 19 -14 10 -2 -9 11 -10 18 -2 23 16 10 12 25 -7 25 -14 0 -15
-2 -4 -9 8 -5 9 -11 3 -15 -6 -3 -13 -2 -17 4 -4 6 -12 8 -18 4 -18 -9 25 26
47 38 11 6 16 6 12 0 -3 -5 2 -12 12 -14 11 -3 19 0 19 8 0 7 -4 11 -9 8 -4
-3 -8 -1 -8 5 0 17 22 24 31 10 6 -9 8 -3 5 18 -2 20 2 34 10 37 17 7 46 -22
37 -37 -3 -7 -2 -9 2 -5 5 5 10 20 11 34 2 18 -1 24 -11 20 -7 -2 -18 1 -24 8
-15 17 25 15 59 -3 l24 -14 -17 27 c-10 14 -13 26 -7 26 5 0 10 -4 10 -9 0 -5
7 -12 16 -15 11 -4 15 -2 11 8 -3 8 1 17 9 20 9 3 12 11 8 17 -4 8 -3 9 5 5
14 -9 43 12 35 25 -3 5 -10 7 -15 4 -5 -3 -6 1 -3 10 6 14 8 13 21 -5 8 -11
24 -20 36 -20 18 0 19 2 7 10 -8 5 -10 10 -5 11 6 0 1 4 -10 9 -17 8 -17 9 7
7 15 -1 25 -4 23 -7 -2 -3 0 -12 6 -20 8 -14 11 -7 8 16 -1 12 23 22 42 17 16
-5 17 -8 7 -22 -12 -14 -11 -14 5 -2 23 18 22 27 -5 34 -16 5 -19 9 -11 19 6
7 9 21 8 31 -3 14 0 15 9 8 7 -6 17 -7 21 -3 5 4 5 1 1 -5 -4 -7 -2 -13 4 -13
6 0 8 -5 5 -11 -4 -6 -14 -8 -22 -5 -8 3 -11 2 -8 -3 7 -12 52 -8 66 6 5 5 10
27 11 49 1 21 3 33 6 26 6 -19 43 -15 40 5 -2 12 5 17 24 18 15 1 25 -2 22 -7
-3 -4 2 -8 10 -8 9 0 16 6 16 13 0 8 3 7 10 -3 8 -12 12 -11 30 8 20 21 31 25
72 25 10 0 20 8 23 18 4 11 11 17 16 14 5 -4 9 0 9 7 0 10 3 9 11 -2 9 -12 10
-11 6 6 -4 17 0 21 22 20 23 -1 26 3 24 29 -2 28 -2 28 5 5 5 -17 10 -21 16
-12 4 6 5 16 1 21 -3 5 3 12 12 14 10 3 2 5 -17 4 -27 -2 -34 -6 -32 -19 2
-10 -1 -18 -7 -18 -13 0 -8 24 8 44 8 10 22 14 35 10 17 -4 22 -1 22 15 0 15
-4 17 -17 10 -13 -7 -19 -5 -22 9 -4 13 -5 11 -6 -5 -1 -15 -7 -23 -18 -23
-14 0 -15 2 -4 9 11 7 9 10 -8 16 -11 3 -21 14 -21 23 0 15 -2 15 -10 2 -7
-12 -12 -12 -22 -2 -16 16 -52 16 -42 0 4 -8 3 -10 -2 -5 -5 5 -9 14 -9 20 0
7 -10 13 -22 15 -13 2 -23 8 -23 13 0 5 -9 9 -19 9 -11 0 -23 5 -26 10 -4 6
-12 7 -18 3 -16 -10 -41 -10 -48 0 -3 4 -25 10 -50 13 -24 3 -52 13 -61 22
-15 12 -18 13 -18 1 -1 -10 -5 -8 -15 5 -11 14 -15 16 -15 5 0 -10 -2 -11 -8
-2 -4 6 -32 15 -62 19 -30 4 -66 11 -79 16 -13 5 -40 11 -60 14 -20 3 -43 7
-51 10 -8 3 -26 8 -40 10 -14 3 -36 9 -50 14 -14 5 -38 11 -55 14 -16 3 -39 7
-50 10 -11 3 -35 7 -53 10 l-33 6 1 -488z m906 109 c-9 -8 -18 -12 -22 -9 -9
10 3 25 21 25 14 0 14 -2 1 -16z m-41 -21 c-3 -5 -11 -10 -16 -10 -6 0 -7 5
-4 10 3 6 11 10 16 10 6 0 7 -4 4 -10z m-49 -25 c-11 -8 -24 -15 -30 -15 -5 0
-1 7 10 15 10 8 24 14 29 14 6 0 1 -6 -9 -14z m-186 -115 c0 -11 -2 -20 -4
-20 -2 0 -6 9 -9 20 -3 11 -1 20 4 20 5 0 9 -9 9 -20z m-95 -10 c-3 -5 -12
-10 -18 -10 -7 0 -6 4 3 10 19 12 23 12 15 0z"/>
<path d="M6637 2998 c-31 -99 -44 -151 -51 -197 -2 -18 -14 -72 -25 -120 -11
-47 -27 -117 -35 -156 -8 -38 -21 -99 -30 -135 -9 -36 -19 -76 -22 -90 -3 -14
-10 -34 -15 -45 -5 -11 -16 -60 -24 -108 -8 -49 -17 -92 -20 -96 -2 -5 -6 -23
-9 -42 -2 -19 -7 -41 -11 -50 -3 -10 -2 -20 4 -23 5 -4 12 2 14 11 9 33 46
197 61 268 8 39 32 142 54 230 22 88 46 189 52 225 12 71 54 252 72 315 6 22
13 45 14 50 1 6 5 18 9 28 4 9 3 17 -3 17 -6 0 -22 -37 -35 -82z"/>
<path d="M1516 2905 c-9 -9 -16 -19 -17 -23 -6 -39 -4 -62 4 -62 6 0 7 -3 4
-6 -3 -4 -1 -16 5 -28 7 -11 13 -24 14 -28 1 -5 3 -11 4 -15 1 -5 2 -11 1 -15
0 -5 5 -8 13 -8 9 0 13 -7 11 -20 -2 -11 -1 -20 3 -20 8 0 24 -31 60 -120 14
-36 34 -74 44 -84 10 -11 18 -26 18 -33 0 -7 11 -36 24 -65 14 -29 28 -66 31
-81 4 -15 11 -30 16 -33 5 -3 9 -13 9 -23 0 -10 8 -25 18 -32 15 -12 16 -12 6
1 -6 8 -14 32 -18 52 -4 21 -22 84 -40 140 -19 57 -51 157 -71 223 -49 160
-97 287 -111 292 -7 2 -19 -3 -28 -12z"/>
<path d="M9146 2903 c-6 -14 -5 -15 5 -6 7 7 10 15 7 18 -3 3 -9 -2 -12 -12z"/>
<path d="M1056 2828 c3 -5 10 -6 15 -3 13 9 11 12 -6 12 -8 0 -12 -4 -9 -9z"/>
<path d="M1009 2783 c-13 -16 -12 -17 4 -4 9 7 17 15 17 17 0 8 -8 3 -21 -13z"/>
<path d="M9109 2793 c-1 -5 -1 -12 0 -17 1 -4 -3 -14 -9 -21 -7 -8 -7 -20 0
-36 l10 -24 -2 26 c-2 14 3 34 11 43 9 11 10 16 2 16 -7 0 -9 5 -6 10 3 6 4
10 1 10 -3 0 -7 -3 -7 -7z"/>
<path d="M705 2660 c-1 -15 4 -27 10 -27 6 0 11 12 11 27 0 15 -4 27 -10 27
-6 0 -11 -12 -11 -27z"/>
<path d="M663 2623 c0 -16 1 -20 4 -10 2 9 9 17 14 17 5 0 9 5 9 10 0 24 -26
7 -27 -17z"/>
<path d="M9142 2631 c-11 -7 -11 -9 0 -14 9 -3 15 1 15 9 0 8 -1 14 -1 14 -1
0 -7 -4 -14 -9z"/>
<path d="M9110 2593 c0 -6 -3 -18 -6 -27 -3 -9 -2 -16 4 -16 15 0 24 32 12 44
-7 7 -10 7 -10 -1z"/>
<path d="M444 2505 c-4 -9 -4 -19 0 -22 3 -4 6 2 7 13 0 18 1 18 9 -1 7 -16 9
-17 9 -3 1 23 -18 33 -25 13z"/>
<path d="M4021 2410 c-1 -26 -6 -51 -13 -58 -7 -7 -8 -12 -3 -12 5 0 -2 -11
-15 -25 -13 -14 -28 -25 -33 -25 -13 0 -56 -47 -49 -54 3 -3 0 -6 -6 -6 -24 0
-11 -26 21 -43 17 -10 35 -17 39 -17 4 0 23 -17 43 -37 36 -37 45 -62 23 -64
-7 0 -51 -2 -98 -4 -115 -5 -228 -15 -245 -22 -34 -13 -3 -56 50 -68 84 -20
164 -90 135 -119 -21 -21 -76 -9 -318 70 -23 8 -55 14 -70 14 -20 -1 -3 -12
66 -45 102 -49 204 -108 242 -141 14 -12 36 -32 50 -43 l25 -21 -59 20 c-33
11 -69 26 -80 34 -29 18 -76 29 -76 17 0 -6 14 -26 31 -46 l31 -35 -26 0 c-30
0 -32 -11 -11 -44 9 -13 20 -38 25 -55 7 -26 6 -31 -9 -31 -9 0 -21 4 -27 10
-5 5 -14 6 -21 2 -8 -5 -3 -25 18 -71 16 -35 28 -66 25 -68 -2 -3 -22 7 -43
21 -20 14 -44 26 -53 26 -9 0 -11 -3 -5 -8 6 -4 18 -22 27 -40 8 -18 18 -33
22 -33 17 2 18 0 6 -14 -7 -8 -27 -17 -45 -21 -18 -3 -43 -17 -56 -30 -12 -13
-27 -24 -34 -24 -6 0 -25 -13 -43 -30 -40 -36 -94 -62 -119 -58 -14 2 -17 -2
-15 -21 2 -14 0 -21 -6 -17 -6 4 -13 2 -16 -3 -6 -10 -74 -8 -118 4 -30 8 -34
0 -29 -52 1 -13 -1 -23 -4 -23 -14 0 -52 25 -86 55 -124 111 -303 152 -520
121 -58 -8 -132 -25 -165 -37 -66 -25 -204 -122 -204 -144 0 -32 145 -13 260
33 54 22 85 27 185 30 198 6 203 6 288 -38 43 -22 91 -40 107 -40 16 0 50 -9
77 -21 26 -11 55 -21 64 -22 17 -1 14 -37 -3 -37 -5 0 -8 -29 -6 -66 2 -53 0
-68 -15 -78 -22 -17 -22 -22 3 -29 21 -5 44 -52 34 -68 -9 -15 -22 -10 -27 9
-3 13 -6 11 -15 -11 -10 -23 -17 -27 -51 -27 -24 0 -41 -5 -44 -14 -3 -7 -20
-16 -39 -19 -18 -3 -62 -10 -98 -17 -36 -7 -96 -14 -135 -15 -38 -2 -73 -3
-78 -4 -4 -1 -5 -12 -3 -25 4 -20 -5 -30 -52 -60 -31 -20 -66 -36 -77 -36 -11
-1 -31 -7 -45 -15 l-25 -15 25 5 c40 8 56 -7 41 -42 -9 -23 -24 -33 -74 -49
-55 -17 -62 -22 -59 -43 2 -13 -2 -27 -8 -31 -18 -11 13 -111 46 -149 14 -17
21 -31 14 -31 -6 0 -9 -8 -7 -17 3 -10 13 -48 23 -85 l17 -68 1740 0 1740 0
-7 117 c-4 64 -15 164 -26 222 -18 102 -58 222 -76 228 -11 4 -31 -40 -40 -86
-7 -33 -8 -33 -16 -11 -8 21 -10 22 -26 6 -20 -17 -87 -23 -77 -6 4 6 14 9 22
8 9 -2 18 3 20 10 3 7 -1 10 -10 6 -8 -3 -18 -1 -22 5 -3 6 0 11 7 11 23 0 81
47 66 53 -7 3 -1 6 14 6 16 1 32 9 37 20 15 27 5 30 -43 13 -38 -14 -46 -14
-77 -1 -61 28 -84 40 -65 34 83 -24 107 -27 135 -15 21 8 27 17 24 31 -3 10
-9 19 -14 19 -5 0 -9 6 -9 14 0 8 -9 18 -20 21 -11 3 -20 13 -20 22 0 17 -45
63 -61 63 -5 0 -9 4 -9 10 0 16 -50 36 -130 53 -108 23 -190 26 -190 6 0 -5 5
-7 10 -4 6 3 10 1 10 -4 0 -6 -7 -11 -16 -11 -8 0 -35 -11 -60 -25 l-44 -25 5
28 6 27 -17 -30 c-11 -19 -13 -30 -6 -33 8 -2 8 -8 1 -20 -16 -26 6 -96 39
-127 37 -35 145 -95 171 -95 12 0 21 -6 21 -15 0 -8 8 -15 18 -15 14 0 15 -2
2 -10 -11 -7 -6 -10 20 -10 27 0 32 3 20 11 -12 7 -8 9 15 7 19 -2 31 -9 33
-20 3 -14 -6 -17 -49 -20 -47 -3 -54 -6 -59 -28 -6 -24 -7 -24 -14 7 -8 34
-20 40 -46 23 -11 -7 -11 -10 -2 -10 7 0 10 -5 6 -12 -5 -8 -12 -5 -24 9 -14
18 -168 113 -183 113 -3 0 -8 -14 -12 -31 -5 -22 -3 -34 6 -40 11 -6 11 -11 1
-21 -9 -9 -12 -9 -12 4 0 15 -36 35 -46 26 -7 -8 27 -98 37 -98 6 0 23 10 39
21 21 16 36 20 57 15 30 -7 62 -14 77 -15 4 -1 6 -7 3 -15 -3 -7 1 -24 10 -36
9 -12 22 -43 29 -68 12 -40 12 -47 -2 -63 -22 -24 -51 -30 -66 -12 -11 13 -13
13 -19 -4 -7 -17 -8 -17 -8 2 -1 18 -2 18 -17 -3 -16 -24 -50 -26 -98 -7 -17
8 -17 7 -1 -25 12 -23 13 -30 3 -24 -7 5 -19 9 -27 11 -8 1 -26 15 -41 32 -15
16 -31 27 -34 24 -3 -4 -20 9 -38 28 -17 19 -28 28 -24 22 5 -9 0 -13 -13 -13
-12 0 -21 -7 -21 -16 0 -8 -5 -12 -11 -9 -6 4 -19 -2 -29 -13 -16 -17 -17 -21
-5 -26 8 -3 15 -12 15 -21 0 -8 7 -15 15 -15 18 0 20 -21 3 -39 -11 -11 -9
-12 11 -6 21 6 23 5 18 -14 -3 -13 1 -24 11 -30 13 -8 13 -10 -6 -22 -12 -8
-22 -17 -22 -22 0 -4 5 -5 10 -2 6 3 10 1 10 -4 0 -6 -8 -11 -17 -12 -54 -3
-78 0 -81 10 -3 9 -7 9 -17 1 -23 -19 -142 -11 -137 9 2 9 -3 9 -18 1 -15 -8
-20 -8 -20 2 0 27 13 58 21 52 5 -3 9 1 9 10 0 8 3 22 7 32 3 10 2 15 -3 12
-5 -4 -10 24 -12 64 -1 45 1 67 8 63 5 -3 25 1 43 10 28 13 33 20 29 40 -2 15
0 25 7 25 6 0 11 5 11 11 0 6 -7 9 -15 5 -10 -3 -15 1 -15 12 -1 16 -1 16 -11
-1 -6 -9 -14 -15 -19 -12 -5 3 -11 1 -15 -5 -4 -6 -11 -7 -17 -4 -6 4 -14 0
-19 -7 -7 -11 -9 -10 -9 4 0 11 -5 17 -12 14 -7 -2 -21 0 -30 5 -11 5 -18 5
-18 0 0 -5 -11 -7 -24 -5 -13 3 -27 0 -30 -6 -4 -6 -18 -11 -31 -11 -13 0 -31
-7 -39 -16 -9 -8 -16 -12 -16 -8 0 4 -8 0 -17 -8 -10 -8 -26 -18 -35 -21 -11
-4 -15 -12 -12 -22 6 -15 3 -15 -46 -6 -3 1 6 10 19 20 24 18 20 18 -170 15
-107 -2 -197 -3 -200 -3 -4 -1 -6 -9 -5 -18 1 -12 -11 -21 -34 -29 -27 -9 -36
-18 -38 -38 -2 -14 -8 -26 -13 -26 -6 0 -7 -4 -4 -10 3 -5 0 -7 -8 -4 -8 3
-18 1 -21 -5 -4 -6 -13 -8 -21 -4 -8 3 -15 1 -15 -3 0 -10 -84 -19 -132 -15
-29 2 -20 29 15 47 17 9 50 32 72 49 59 49 124 82 175 90 51 8 100 26 100 37
0 5 -5 8 -10 8 -7 0 -7 6 0 19 7 14 5 24 -8 41 -26 32 -163 87 -297 120 -148
35 -176 45 -196 72 -10 13 -30 22 -54 24 -44 4 -55 12 -35 24 16 10 7 12 -65
15 -16 0 -34 3 -40 7 -5 3 -19 4 -30 1 -35 -7 -49 -7 -98 1 -26 5 -50 12 -52
17 -3 4 -12 6 -19 3 -22 -9 -28 14 -9 33 19 19 18 19 348 -2 l110 -7 63 57
c35 32 85 91 112 130 34 51 68 86 111 117 75 52 116 113 132 199 10 57 15 64
58 96 44 31 79 88 79 128 0 7 10 21 21 29 l22 15 -31 98 c-16 54 -42 143 -57
198 -31 114 -80 281 -100 340 -17 50 -50 163 -69 235 l-14 55 -1 -45z m1490
-1577 c13 -17 13 -17 -6 -3 -11 8 -22 16 -24 17 -2 2 0 3 6 3 6 0 17 -8 24
-17z m-2128 -172 c3 -13 -4 -23 -22 -32 -29 -16 -54 -34 -86 -65 -13 -11 -30
-19 -39 -18 -9 1 -16 -2 -16 -6 0 -5 -13 -11 -30 -15 -16 -4 -30 -12 -30 -18
0 -7 -4 -6 -10 3 -5 8 -10 10 -10 4 0 -16 -49 -37 -94 -40 -21 -1 -42 -8 -47
-16 -7 -11 -9 -11 -9 1 0 7 -6 11 -15 7 -9 -3 -15 0 -15 7 0 31 165 130 330
198 67 27 83 26 93 -10z m260 -87 c3 -3 3 -12 0 -20 -4 -11 -9 -12 -19 -3 -8
6 -11 15 -8 20 6 10 18 12 27 3z m-45 -35 c-11 -7 -10 -11 2 -19 13 -10 13
-11 0 -9 -58 6 -73 -7 -43 -37 13 -13 14 -19 5 -22 -7 -2 -9 -8 -6 -14 4 -6
-2 -8 -16 -3 -17 6 -21 4 -14 -6 7 -12 5 -12 -9 0 -14 11 -18 11 -23 -3 -3 -9
-10 -13 -15 -10 -5 3 -6 11 -2 17 3 7 -3 3 -15 -7 -12 -11 -39 -21 -59 -23
-21 -2 -43 -9 -50 -14 -7 -6 -17 -8 -22 -5 -5 4 -12 2 -16 -4 -4 -6 -10 -8
-15 -5 -11 7 -2 35 11 35 6 0 19 9 31 20 27 25 179 105 196 104 6 -1 12 2 12
6 0 11 31 18 48 12 11 -4 11 -6 0 -13z m2177 11 c3 -5 1 -10 -4 -10 -6 0 -11
5 -11 10 0 6 2 10 4 10 3 0 8 -4 11 -10z m-90 -57 c-3 -8 -5 -19 -5 -24 0 -5
-12 -6 -27 -3 -35 8 -35 8 -28 26 3 8 19 15 36 15 22 0 28 -4 24 -14z m-165
-107 c0 -11 -19 -15 -25 -6 -3 5 1 10 9 10 9 0 16 -2 16 -4z m-1000 -117 c0
-5 9 -9 20 -9 18 0 19 -3 10 -20 -6 -11 -8 -20 -5 -20 4 0 3 -5 -1 -11 -5 -8
-9 -8 -14 1 -5 9 -13 9 -27 1 -11 -5 -23 -7 -27 -4 -3 3 -6 -4 -6 -16 0 -12 4
-20 9 -16 5 3 12 1 16 -5 3 -5 2 -10 -4 -10 -6 0 -8 -6 -5 -14 7 -18 -12 -30
-22 -14 -4 7 -7 28 -5 47 1 19 -3 37 -8 41 -14 8 40 68 57 62 6 -2 12 -8 12
-13z m495 -49 c3 -5 -1 -10 -10 -10 -9 0 -13 5 -10 10 3 6 8 10 10 10 2 0 7
-4 10 -10z m88 -47 c28 -4 35 -10 35 -29 0 -14 -4 -27 -9 -30 -5 -3 -9 0 -9 5
0 6 -5 11 -11 11 -7 0 -9 -11 -6 -30 7 -32 -8 -49 -26 -31 -8 8 -6 11 9 12 10
0 14 3 7 5 -7 3 -10 11 -7 18 3 7 -5 17 -17 22 -17 8 -23 20 -25 50 -3 35 -2
37 10 21 8 -10 30 -20 49 -24z m-395 -35 c-1 -18 -7 -38 -14 -45 -15 -16 -28
-17 -19 -3 4 6 1 17 -5 25 -10 12 -9 15 5 15 11 0 15 5 12 14 -3 8 -1 17 6 20
7 2 13 5 14 5 1 1 1 -14 1 -31z m42 28 c0 -2 -7 -7 -16 -10 -8 -3 -12 -2 -9 4
6 10 25 14 25 6z m10 -25 c0 -6 -4 -13 -10 -16 -5 -3 -10 1 -10 9 0 9 5 16 10
16 6 0 10 -4 10 -9z m-107 -51 c3 -11 1 -18 -4 -14 -5 3 -9 12 -9 20 0 20 7
17 13 -6z"/>
<path d="M283 2394 c0 -17 2 -22 7 -13 5 6 6 18 3 26 -8 19 -10 16 -10 -13z"/>
<path d="M7685 2400 c3 -5 8 -10 11 -10 2 0 4 5 4 10 0 6 -5 10 -11 10 -5 0
-7 -4 -4 -10z"/>
<path d="M8984 2371 c0 -11 5 -17 13 -14 10 4 11 9 2 19 -15 18 -15 18 -15 -5z"/>
<path d="M8990 2336 c0 -2 7 -7 16 -10 8 -3 12 -2 9 4 -6 10 -25 14 -25 6z"/>
<path d="M7371 2263 c0 -4 4 -17 9 -28 8 -19 9 -19 9 2 1 12 -3 25 -9 28 -5 3
-10 3 -9 -2z"/>
<path d="M1780 2183 c1 -13 29 -59 30 -48 0 21 -13 55 -21 55 -5 0 -9 -3 -9
-7z"/>
<path d="M9015 2050 c3 -5 8 -10 11 -10 2 0 4 5 4 10 0 6 -5 10 -11 10 -5 0
-7 -4 -4 -10z"/>
<path d="M6380 1909 c0 -5 5 -7 10 -4 6 3 10 8 10 11 0 2 -4 4 -10 4 -5 0 -10
-5 -10 -11z"/>
<path d="M7316 1794 c-9 -24 -7 -28 9 -14 17 14 20 30 6 30 -5 0 -12 -7 -15
-16z"/>
<path d="M7288 1704 c-4 -3 0 -14 9 -22 10 -11 12 -17 4 -20 -6 -2 -9 -8 -5
-13 3 -5 0 -9 -6 -9 -6 0 -8 -5 -4 -11 3 -6 10 -7 15 -2 11 11 19 74 9 68 -5
-3 -10 0 -12 6 -2 5 -6 7 -10 3z"/>
<path d="M7271 1574 c0 -11 3 -14 6 -6 3 7 2 16 -1 19 -3 4 -6 -2 -5 -13z"/>
<path d="M7253 1513 c-18 -7 -16 -16 5 -30 17 -10 18 -8 14 13 -2 13 -5 24 -6
23 0 0 -7 -3 -13 -6z"/>
<path d="M7203 1423 c1 -17 4 -19 14 -11 15 12 18 22 4 14 -5 -4 -11 0 -14 6
-3 7 -4 3 -4 -9z"/>
<path d="M3535 1379 c-4 -6 -5 -12 -2 -15 7 -7 37 7 37 17 0 13 -27 11 -35 -2z"/>
<path d="M8570 1285 c0 -3 9 -15 20 -27 25 -27 38 -17 13 11 -16 20 -33 28
-33 16z"/>
<path d="M4380 1235 c-13 -33 -3 -55 25 -55 24 0 25 7 7 53 -14 33 -20 34 -32
2z"/>
<path d="M2673 1076 c20 -16 23 -56 3 -56 -8 0 -17 -7 -20 -16 -3 -8 -10 -12
-16 -9 -5 3 -10 2 -10 -4 0 -5 4 -12 8 -15 28 -17 -21 -194 -67 -243 -12 -12
-21 -27 -21 -33 0 -23 -40 -86 -66 -105 -57 -42 -70 -54 -54 -55 21 0 67 29
156 100 41 33 85 60 97 60 12 1 60 15 107 33 69 26 85 36 83 52 -3 30 -14 107
-19 133 -5 27 -88 112 -143 146 -42 27 -69 35 -38 12z"/>
<path d="M2235 996 c-19 -19 -24 -30 -17 -43 5 -10 7 -23 5 -30 -11 -30 71
-257 91 -250 22 7 56 173 56 279 0 41 -12 52 -72 63 -31 6 -41 3 -63 -19z"/>
<path d="M8084 879 c-19 -22 -19 -22 4 -10 12 6 22 16 22 21 0 15 -5 12 -26
-11z"/>
<path d="M3980 799 c-34 -34 -59 -64 -56 -67 12 -11 84 -11 94 1 6 7 24 38 41
70 l30 57 -25 0 c-16 0 -43 -19 -84 -61z"/>
<path d="M5138 779 c-10 -5 -18 -22 -18 -36 0 -22 3 -24 25 -19 14 4 25 2 25
-3 0 -5 11 -11 25 -13 28 -6 41 18 31 58 -5 19 -13 24 -39 24 -17 0 -40 -5
-49 -11z"/>
<path d="M5148 666 c-4 -21 -3 -23 14 -13 19 12 19 28 1 34 -6 2 -13 -7 -15
-21z"/>
<path d="M4341 596 c-9 -10 -8 -15 4 -20 10 -4 15 1 15 14 0 24 -4 25 -19 6z"/>
<path d="M4417 573 c10 -8 12 -12 6 -8 -7 3 -13 2 -13 -4 0 -5 5 -11 12 -13 7
-3 -2 -17 -21 -36 -28 -26 -32 -34 -21 -47 18 -22 33 -18 20 5 -6 11 -7 20 -3
19 32 -5 43 2 37 25 -5 22 -3 24 17 19 16 -5 20 -3 14 6 -5 10 -2 11 14 6 13
-4 27 -1 36 9 16 15 4 33 -15 21 -5 -3 -15 -3 -22 1 -6 4 -27 9 -45 10 -32 2
-33 1 -16 -13z"/>
<path d="M7306 582 c-3 -5 -1 -22 4 -38 7 -23 8 -25 9 -7 1 12 4 28 7 37 6 16
-11 23 -20 8z"/>
<path d="M4293 553 c22 -22 63 -25 78 -6 12 15 12 16 -8 11 -13 -4 -23 -2 -23
3 0 5 -14 8 -30 7 -25 -2 -28 -5 -17 -15z"/>
<path d="M7171 551 c-7 -5 -9 -11 -5 -14 5 -3 15 1 22 9 14 16 5 18 -17 5z"/>
<path d="M7100 515 c0 -8 4 -15 8 -15 5 0 9 7 9 15 0 8 -4 15 -9 15 -4 0 -8
-7 -8 -15z"/>
<path d="M5146 457 c3 -10 9 -15 12 -12 3 3 0 11 -7 18 -10 9 -11 8 -5 -6z"/>
<path d="M6577 440 c3 -11 9 -20 13 -20 4 0 15 9 25 20 18 20 17 20 -13 20
-25 0 -29 -3 -25 -20z"/>
<path d="M5091 434 c0 -11 3 -14 6 -6 3 7 2 16 -1 19 -3 4 -6 -2 -5 -13z"/>
<path d="M6517 419 c4 -15 8 -16 24 -6 26 16 24 25 -5 25 -18 0 -22 -5 -19
-19z"/>
<path d="M4475 390 c3 -5 14 -10 23 -10 15 0 15 2 2 10 -20 13 -33 13 -25 0z"/>
<path d="M4935 360 c3 -5 10 -10 16 -10 5 0 9 5 9 10 0 6 -7 10 -16 10 -8 0
-12 -4 -9 -10z"/>
<path d="M6430 320 c-8 -5 -12 -11 -9 -14 2 -3 11 -1 19 4 8 5 12 11 9 14 -2
3 -11 1 -19 -4z"/>
<path d="M6193 265 c-3 -9 -3 -19 1 -22 3 -4 6 1 6 10 0 8 6 18 13 20 9 4 9 6
-1 6 -7 1 -15 -6 -19 -14z"/>
<path d="M6433 260 c1 -11 4 -20 8 -20 10 0 19 27 12 34 -12 12 -22 5 -20 -14z"/>
<path d="M6305 260 c3 -5 10 -10 16 -10 5 0 9 5 9 10 0 6 -7 10 -16 10 -8 0
-12 -4 -9 -10z"/>
<path d="M4927 183 c-4 -3 -7 -11 -7 -17 0 -6 5 -5 12 2 6 6 9 14 7 17 -3 3
-9 2 -12 -2z"/>
<path d="M4851 148 c-7 -11 -8 -17 -2 -14 5 3 12 -2 14 -11 4 -16 5 -16 6 1 1
12 6 16 16 12 16 -6 19 3 7 19 -12 17 -27 15 -41 -7z"/>
</g>
</svg>
